<svg width="407" height="120" viewBox="0 0 407 120" fill="none" xmlns="http://www.w3.org/2000/svg">
<path d="M33.4545 94.4546C26.6364 94.4546 20.7273 92.9546 15.7273 89.9546C10.7273 86.9546 6.84849 82.7576 4.09091 77.3636C1.36364 71.9697 0 65.6667 0 58.4545C0 51.2424 1.36364 44.9242 4.09091 39.5C6.84849 34.0758 10.7273 29.8636 15.7273 26.8636C20.7273 23.8636 26.6364 22.3636 33.4545 22.3636C40.2727 22.3636 46.1818 23.8636 51.1818 26.8636C56.1818 29.8636 60.0455 34.0758 62.7727 39.5C65.5303 44.9242 66.9091 51.2424 66.9091 58.4545C66.9091 65.6667 65.5303 71.9697 62.7727 77.3636C60.0455 82.7576 56.1818 86.9546 51.1818 89.9546C46.1818 92.9546 40.2727 94.4546 33.4545 94.4546ZM33.5455 81.2727C37.2424 81.2727 40.3333 80.2576 42.8182 78.2273C45.303 76.1667 47.1515 73.4091 48.3636 69.9545C49.6061 66.5 50.2273 62.6515 50.2273 58.4091C50.2273 54.1364 49.6061 50.2727 48.3636 46.8182C47.1515 43.3333 45.303 40.5606 42.8182 38.5C40.3333 36.4394 37.2424 35.4091 33.5455 35.4091C29.7576 35.4091 26.6061 36.4394 24.0909 38.5C21.6061 40.5606 19.7424 43.3333 18.5 46.8182C17.2879 50.2727 16.6818 54.1364 16.6818 58.4091C16.6818 62.6515 17.2879 66.5 18.5 69.9545C19.7424 73.4091 21.6061 76.1667 24.0909 78.2273C26.6061 80.2576 29.7576 81.2727 33.5455 81.2727Z" fill="#4285F4"/>
<path d="M80.875 119.273V23.2727H97.0568V34.8182H98.0114C98.8599 33.1212 100.057 31.3182 101.602 29.4091C103.148 27.4697 105.239 25.8182 107.875 24.4545C110.511 23.0606 113.875 22.3636 117.966 22.3636C123.36 22.3636 128.223 23.7424 132.557 26.5C136.92 29.2273 140.375 33.2727 142.92 38.6364C145.496 43.9697 146.784 50.5152 146.784 58.2727C146.784 65.9394 145.527 72.4545 143.011 77.8182C140.496 83.1818 137.072 87.2727 132.739 90.0909C128.405 92.9091 123.496 94.3182 118.011 94.3182C114.011 94.3182 110.693 93.6515 108.057 92.3182C105.42 90.9849 103.299 89.3788 101.693 87.5C100.117 85.5909 98.8902 83.7879 98.0114 82.0909H97.3295V119.273H80.875ZM97.0114 58.1818C97.0114 62.697 97.6477 66.6515 98.9205 70.0455C100.223 73.4394 102.087 76.0909 104.511 78C106.966 79.8788 109.936 80.8182 113.42 80.8182C117.057 80.8182 120.102 79.8485 122.557 77.9091C125.011 75.9394 126.86 73.2576 128.102 69.8636C129.375 66.4394 130.011 62.5455 130.011 58.1818C130.011 53.8485 129.39 50 128.148 46.6364C126.905 43.2727 125.057 40.6364 122.602 38.7273C120.148 36.8182 117.087 35.8636 113.42 35.8636C109.905 35.8636 106.92 36.7879 104.466 38.6364C102.011 40.4848 100.148 43.0758 98.875 46.4091C97.6326 49.7424 97.0114 53.6667 97.0114 58.1818Z" fill="#EA4335"/>
<path d="M173.284 93.0909L153.557 23.2727H170.33L182.602 72.3636H183.239L195.784 23.2727H212.375L224.92 72.0909H225.602L237.693 23.2727H254.511L234.739 93.0909H217.602L204.511 45.9091H203.557L190.466 93.0909H173.284Z" fill="#FBBE0D"/>
<path d="M294.909 94.4546C287.909 94.4546 281.864 93 276.773 90.0909C271.712 87.1515 267.818 83 265.091 77.6364C262.364 72.2424 261 65.8939 261 58.5909C261 51.4091 262.364 45.1061 265.091 39.6818C267.848 34.2273 271.697 29.9848 276.636 26.9545C281.576 23.8939 287.379 22.3636 294.045 22.3636C298.348 22.3636 302.409 23.0606 306.227 24.4545C310.076 25.8182 313.47 27.9394 316.409 30.8182C319.379 33.697 321.712 37.3636 323.409 41.8182C325.106 46.2424 325.955 51.5152 325.955 57.6364V62.6818H268.727V51.5909H310.182C310.152 48.4394 309.47 45.6364 308.136 43.1818C306.803 40.697 304.939 38.7424 302.545 37.3182C300.182 35.8939 297.424 35.1818 294.273 35.1818C290.909 35.1818 287.955 36 285.409 37.6364C282.864 39.2424 280.879 41.3636 279.455 44C278.061 46.6061 277.348 49.4697 277.318 52.5909V62.2727C277.318 66.3333 278.061 69.8182 279.545 72.7273C281.03 75.6061 283.106 77.8182 285.773 79.3636C288.439 80.8788 291.561 81.6364 295.136 81.6364C297.53 81.6364 299.697 81.303 301.636 80.6364C303.576 79.9394 305.258 78.9242 306.682 77.5909C308.106 76.2576 309.182 74.6061 309.909 72.6364L325.273 74.3636C324.303 78.4242 322.455 81.9697 319.727 85C317.03 88 313.576 90.3333 309.364 92C305.152 93.6364 300.333 94.4546 294.909 94.4546Z" fill="#4285F4"/>
<path d="M340.602 93.0909V0H357.057V34.8182H357.739C358.587 33.1212 359.784 31.3182 361.33 29.4091C362.875 27.4697 364.966 25.8182 367.602 24.4545C370.239 23.0606 373.602 22.3636 377.693 22.3636C383.087 22.3636 387.951 23.7424 392.284 26.5C396.648 29.2273 400.102 33.2727 402.648 38.6364C405.223 43.9697 406.511 50.5152 406.511 58.2727C406.511 65.9394 405.254 72.4545 402.739 77.8182C400.223 83.1818 396.799 87.2727 392.466 90.0909C388.133 92.9091 383.223 94.3182 377.739 94.3182C373.739 94.3182 370.42 93.6515 367.784 92.3182C365.148 90.9849 363.027 89.3788 361.42 87.5C359.845 85.5909 358.617 83.7879 357.739 82.0909H356.784V93.0909H340.602ZM356.739 58.1818C356.739 62.697 357.375 66.6515 358.648 70.0455C359.951 73.4394 361.814 76.0909 364.239 78C366.693 79.8788 369.663 80.8182 373.148 80.8182C376.784 80.8182 379.83 79.8485 382.284 77.9091C384.739 75.9394 386.587 73.2576 387.83 69.8636C389.102 66.4394 389.739 62.5455 389.739 58.1818C389.739 53.8485 389.117 50 387.875 46.6364C386.633 43.2727 384.784 40.6364 382.33 38.7273C379.875 36.8182 376.814 35.8636 373.148 35.8636C369.633 35.8636 366.648 36.7879 364.193 38.6364C361.739 40.4848 359.875 43.0758 358.602 46.4091C357.36 49.7424 356.739 53.6667 356.739 58.1818Z" fill="#34A853"/>
</svg>
