<svg width="137" height="35" viewBox="0 0 137 35" fill="none" xmlns="http://www.w3.org/2000/svg">
<path d="M46.4997 25.8674C44.8457 25.8674 43.4122 25.5042 42.1992 24.7779C40.9863 24.0516 40.0453 23.0355 39.3763 21.7297C38.7147 20.4238 38.3839 18.8978 38.3839 17.1518C38.3839 15.4057 38.7147 13.8761 39.3763 12.5629C40.0453 11.2497 40.9863 10.23 42.1992 9.50366C43.4122 8.77737 44.8457 8.41422 46.4997 8.41422C48.1537 8.41422 49.5872 8.77737 50.8002 9.50366C52.0131 10.23 52.9504 11.2497 53.612 12.5629C54.281 13.8761 54.6155 15.4057 54.6155 17.1518C54.6155 18.8978 54.281 20.4238 53.612 21.7297C52.9504 23.0355 52.0131 24.0516 50.8002 24.7779C49.5872 25.5042 48.1537 25.8674 46.4997 25.8674ZM46.5217 22.6761C47.4186 22.6761 48.1684 22.4303 48.7712 21.9388C49.374 21.4399 49.8225 20.7723 50.1165 19.9359C50.4179 19.0996 50.5686 18.1679 50.5686 17.1408C50.5686 16.1064 50.4179 15.171 50.1165 14.3346C49.8225 13.491 49.374 12.8197 48.7712 12.3208C48.1684 11.8219 47.4186 11.5725 46.5217 11.5725C45.6028 11.5725 44.8383 11.8219 44.2282 12.3208C43.6254 12.8197 43.1733 13.491 42.8719 14.3346C42.5778 15.171 42.4308 16.1064 42.4308 17.1408C42.4308 18.1679 42.5778 19.0996 42.8719 19.9359C43.1733 20.7723 43.6254 21.4399 44.2282 21.9388C44.8383 22.4303 45.6028 22.6761 46.5217 22.6761Z" fill="#4285F4"/>
<path d="M58.0035 31.8758V8.63431H61.929V11.4295H62.1606C62.3665 11.0186 62.6568 10.5821 63.0317 10.1199C63.4067 9.65039 63.9139 9.25056 64.5534 8.92042C65.193 8.58295 66.009 8.41422 67.0014 8.41422C68.3099 8.41422 69.4898 8.74802 70.541 9.41563C71.5996 10.0759 72.4377 11.0553 73.0552 12.3538C73.68 13.645 73.9925 15.2297 73.9925 17.1078C73.9925 18.9639 73.6874 20.5412 73.0772 21.8397C72.4671 23.1382 71.6364 24.1287 70.5851 24.8109C69.5339 25.4932 68.343 25.8344 67.0124 25.8344C66.0421 25.8344 65.2371 25.673 64.5976 25.3502C63.958 25.0274 63.4434 24.6385 63.0538 24.1837C62.6715 23.7215 62.3738 23.285 62.1606 22.8741H61.9952V31.8758H58.0035ZM61.918 17.0858C61.918 18.1789 62.0724 19.1363 62.3812 19.9579C62.6973 20.7796 63.1494 21.4215 63.7375 21.8837C64.3329 22.3386 65.0533 22.566 65.8987 22.566C66.7809 22.566 67.5197 22.3313 68.1151 21.8617C68.7106 21.3849 69.159 20.7356 69.4604 19.9139C69.7692 19.0849 69.9235 18.1422 69.9235 17.0858C69.9235 16.0367 69.7728 15.105 69.4714 14.2906C69.17 13.4763 68.7216 12.838 68.1262 12.3758C67.5307 11.9137 66.7882 11.6826 65.8987 11.6826C65.046 11.6826 64.3219 11.9063 63.7264 12.3538C63.131 12.8013 62.6789 13.4286 62.3701 14.2356C62.0687 15.0426 61.918 15.9927 61.918 17.0858Z" fill="#EA4335"/>
<path d="M80.4211 25.5372L75.6355 8.63431H79.7044L82.6816 20.5192H82.836L85.8794 8.63431H89.9042L92.9477 20.4531H93.1131L96.0462 8.63431H100.126L95.3295 25.5372H91.1723L87.9966 14.1146H87.765L84.5893 25.5372H80.4211Z" fill="#FBBE0D"/>
<path d="M109.926 25.8674C108.228 25.8674 106.762 25.5152 105.527 24.8109C104.299 24.0993 103.354 23.0942 102.693 21.7957C102.031 20.4898 101.7 18.9529 101.7 17.1848C101.7 15.4461 102.031 13.9201 102.693 12.6069C103.362 11.2864 104.295 10.2593 105.493 9.52567C106.692 8.7847 108.099 8.41422 109.717 8.41422C110.761 8.41422 111.746 8.58295 112.672 8.92042C113.606 9.25056 114.429 9.7641 115.142 10.4611C115.862 11.158 116.428 12.0457 116.84 13.1241C117.252 14.1953 117.458 15.4718 117.458 16.9537V18.1752H103.575V15.4901H113.631C113.624 14.7271 113.459 14.0485 113.135 13.4543C112.812 12.8527 112.36 12.3795 111.779 12.0347C111.205 11.6899 110.536 11.5175 109.772 11.5175C108.956 11.5175 108.239 11.7156 107.622 12.1117C107.004 12.5006 106.523 13.0141 106.177 13.6524C105.839 14.2833 105.666 14.9766 105.659 15.7322V18.0762C105.659 19.0592 105.839 19.9029 106.199 20.6072C106.559 21.3042 107.063 21.8397 107.71 22.2139C108.357 22.5807 109.114 22.7641 109.981 22.7641C110.562 22.7641 111.088 22.6834 111.558 22.522C112.029 22.3533 112.437 22.1075 112.782 21.7847C113.128 21.4619 113.389 21.0621 113.565 20.5852L117.292 21.0034C117.057 21.9864 116.609 22.8448 115.947 23.5784C115.293 24.3047 114.455 24.8696 113.433 25.2731C112.411 25.6693 111.242 25.8674 109.926 25.8674Z" fill="#4285F4"/>
<path d="M121.011 25.5372V3H125.003V11.4295H125.168C125.374 11.0186 125.664 10.5821 126.039 10.1199C126.414 9.65039 126.921 9.25056 127.561 8.92042C128.201 8.58295 129.017 8.41422 130.009 8.41422C131.318 8.41422 132.497 8.74802 133.549 9.41563C134.607 10.0759 135.445 11.0553 136.063 12.3538C136.688 13.645 137 15.2297 137 17.1078C137 18.9639 136.695 20.5412 136.085 21.8397C135.475 23.1382 134.644 24.1287 133.593 24.8109C132.541 25.4932 131.351 25.8344 130.02 25.8344C129.05 25.8344 128.245 25.673 127.605 25.3502C126.966 25.0274 126.451 24.6385 126.061 24.1837C125.679 23.7215 125.381 23.285 125.168 22.8741H124.937V25.5372H121.011ZM124.926 17.0858C124.926 18.1789 125.08 19.1363 125.389 19.9579C125.705 20.7796 126.157 21.4215 126.745 21.8837C127.34 22.3386 128.061 22.566 128.906 22.566C129.788 22.566 130.527 22.3313 131.123 21.8617C131.718 21.3849 132.167 20.7356 132.468 19.9139C132.777 19.0849 132.931 18.1422 132.931 17.0858C132.931 16.0367 132.78 15.105 132.479 14.2906C132.178 13.4763 131.729 12.838 131.134 12.3758C130.538 11.9137 129.796 11.6826 128.906 11.6826C128.054 11.6826 127.329 11.9063 126.734 12.3538C126.139 12.8013 125.686 13.4286 125.378 14.2356C125.076 15.0426 124.926 15.9927 124.926 17.0858Z" fill="#34A853"/>
<path d="M17.5005 1V34.0009M34.0009 17.5005H1M4.72318 7.34634C8.45252 10.0069 12.9194 11.437 17.5005 11.437C22.0816 11.437 26.5484 10.0069 30.2778 7.34634M30.2778 27.6546C26.5484 24.994 22.0816 23.564 17.5005 23.564C12.9194 23.564 8.45252 24.994 4.72318 27.6546M16.2312 1.42309C13.8798 3.40889 11.9901 5.88385 10.6938 8.67528C9.39752 11.4667 8.72595 14.5074 8.72595 17.5851C8.72595 20.6628 9.39752 23.7035 10.6938 26.4949C11.9901 29.2863 13.8798 31.7613 16.2312 33.7471M18.7697 33.7471C21.1211 31.7613 23.0109 29.2863 24.3072 26.4949C25.6034 23.7035 26.275 20.6628 26.275 17.5851C26.275 14.5074 25.6034 11.4667 24.3072 8.67528C23.0109 5.88385 21.1211 3.40889 18.7697 1.42309M17.4159 1C13.047 1.0224 8.86544 2.77651 5.78809 5.87762C2.71074 8.97874 0.988852 13.1737 1.00005 17.5426C1.01126 21.9114 2.75463 26.0975 5.84784 29.1828C8.94106 32.2681 13.1316 34.0007 17.5005 34.0007C21.8693 34.0007 26.0599 32.2681 29.1531 29.1828C32.2463 26.0975 33.9897 21.9114 34.0009 17.5426C34.0121 13.1737 32.2902 8.97874 29.2129 5.87762C26.1355 2.77651 21.9539 1.0224 17.5851 1H17.4159Z" stroke="url(#paint0_linear_102_5)"/>
<defs>
<linearGradient id="paint0_linear_102_5" x1="34.0009" y1="17.5005" x2="1" y2="17.5005" gradientUnits="userSpaceOnUse">
<stop stop-color="#34A853"/>
<stop offset="1" stop-color="#4285F4"/>
</linearGradient>
</defs>
</svg>
