<svg width="670" height="238" viewBox="0 0 670 238" fill="none" xmlns="http://www.w3.org/2000/svg">
<path d="M296.455 138.455C289.636 138.455 283.727 136.955 278.727 133.955C273.727 130.955 269.848 126.758 267.091 121.364C264.364 115.97 263 109.667 263 102.455C263 95.2424 264.364 88.9242 267.091 83.5C269.848 78.0758 273.727 73.8636 278.727 70.8636C283.727 67.8636 289.636 66.3636 296.455 66.3636C303.273 66.3636 309.182 67.8636 314.182 70.8636C319.182 73.8636 323.045 78.0758 325.773 83.5C328.53 88.9242 329.909 95.2424 329.909 102.455C329.909 109.667 328.53 115.97 325.773 121.364C323.045 126.758 319.182 130.955 314.182 133.955C309.182 136.955 303.273 138.455 296.455 138.455ZM296.545 125.273C300.242 125.273 303.333 124.258 305.818 122.227C308.303 120.167 310.152 117.409 311.364 113.955C312.606 110.5 313.227 106.652 313.227 102.409C313.227 98.1364 312.606 94.2727 311.364 90.8182C310.152 87.3333 308.303 84.5606 305.818 82.5C303.333 80.4394 300.242 79.4091 296.545 79.4091C292.758 79.4091 289.606 80.4394 287.091 82.5C284.606 84.5606 282.742 87.3333 281.5 90.8182C280.288 94.2727 279.682 98.1364 279.682 102.409C279.682 106.652 280.288 110.5 281.5 113.955C282.742 117.409 284.606 120.167 287.091 122.227C289.606 124.258 292.758 125.273 296.545 125.273Z" fill="#4285F4"/>
<path d="M343.875 163.273V67.2727H360.057V78.8182H361.011C361.86 77.1212 363.057 75.3182 364.602 73.4091C366.148 71.4697 368.239 69.8182 370.875 68.4545C373.511 67.0606 376.875 66.3636 380.966 66.3636C386.36 66.3636 391.223 67.7424 395.557 70.5C399.92 73.2273 403.375 77.2727 405.92 82.6364C408.496 87.9697 409.784 94.5152 409.784 102.273C409.784 109.939 408.527 116.455 406.011 121.818C403.496 127.182 400.072 131.273 395.739 134.091C391.405 136.909 386.496 138.318 381.011 138.318C377.011 138.318 373.693 137.652 371.057 136.318C368.42 134.985 366.299 133.379 364.693 131.5C363.117 129.591 361.89 127.788 361.011 126.091H360.33V163.273H343.875ZM360.011 102.182C360.011 106.697 360.648 110.652 361.92 114.045C363.223 117.439 365.087 120.091 367.511 122C369.966 123.879 372.936 124.818 376.42 124.818C380.057 124.818 383.102 123.848 385.557 121.909C388.011 119.939 389.86 117.258 391.102 113.864C392.375 110.439 393.011 106.545 393.011 102.182C393.011 97.8485 392.39 94 391.148 90.6364C389.905 87.2727 388.057 84.6364 385.602 82.7273C383.148 80.8182 380.087 79.8636 376.42 79.8636C372.905 79.8636 369.92 80.7879 367.466 82.6364C365.011 84.4848 363.148 87.0758 361.875 90.4091C360.633 93.7424 360.011 97.6667 360.011 102.182Z" fill="#EA4335"/>
<path d="M436.284 137.091L416.557 67.2727H433.33L445.602 116.364H446.239L458.784 67.2727H475.375L487.92 116.091H488.602L500.693 67.2727H517.511L497.739 137.091H480.602L467.511 89.9091H466.557L453.466 137.091H436.284Z" fill="#FBBE0D"/>
<path d="M557.909 138.455C550.909 138.455 544.864 137 539.773 134.091C534.712 131.152 530.818 127 528.091 121.636C525.364 116.242 524 109.894 524 102.591C524 95.4091 525.364 89.1061 528.091 83.6818C530.848 78.2273 534.697 73.9848 539.636 70.9545C544.576 67.8939 550.379 66.3636 557.045 66.3636C561.348 66.3636 565.409 67.0606 569.227 68.4545C573.076 69.8182 576.47 71.9394 579.409 74.8182C582.379 77.697 584.712 81.3636 586.409 85.8182C588.106 90.2424 588.955 95.5152 588.955 101.636V106.682H531.727V95.5909H573.182C573.152 92.4394 572.47 89.6364 571.136 87.1818C569.803 84.697 567.939 82.7424 565.545 81.3182C563.182 79.8939 560.424 79.1818 557.273 79.1818C553.909 79.1818 550.955 80 548.409 81.6364C545.864 83.2424 543.879 85.3636 542.455 88C541.061 90.6061 540.348 93.4697 540.318 96.5909V106.273C540.318 110.333 541.061 113.818 542.545 116.727C544.03 119.606 546.106 121.818 548.773 123.364C551.439 124.879 554.561 125.636 558.136 125.636C560.53 125.636 562.697 125.303 564.636 124.636C566.576 123.939 568.258 122.924 569.682 121.591C571.106 120.258 572.182 118.606 572.909 116.636L588.273 118.364C587.303 122.424 585.455 125.97 582.727 129C580.03 132 576.576 134.333 572.364 136C568.152 137.636 563.333 138.455 557.909 138.455Z" fill="#4285F4"/>
<path d="M603.602 137.091V44H620.057V78.8182H620.739C621.587 77.1212 622.784 75.3182 624.33 73.4091C625.875 71.4697 627.966 69.8182 630.602 68.4545C633.239 67.0606 636.602 66.3636 640.693 66.3636C646.087 66.3636 650.951 67.7424 655.284 70.5C659.648 73.2273 663.102 77.2727 665.648 82.6364C668.223 87.9697 669.511 94.5152 669.511 102.273C669.511 109.939 668.254 116.455 665.739 121.818C663.223 127.182 659.799 131.273 655.466 134.091C651.133 136.909 646.223 138.318 640.739 138.318C636.739 138.318 633.42 137.652 630.784 136.318C628.148 134.985 626.027 133.379 624.42 131.5C622.845 129.591 621.617 127.788 620.739 126.091H619.784V137.091H603.602ZM619.739 102.182C619.739 106.697 620.375 110.652 621.648 114.045C622.951 117.439 624.814 120.091 627.239 122C629.693 123.879 632.663 124.818 636.148 124.818C639.784 124.818 642.83 123.848 645.284 121.909C647.739 119.939 649.587 117.258 650.83 113.864C652.102 110.439 652.739 106.545 652.739 102.182C652.739 97.8485 652.117 94 650.875 90.6364C649.633 87.2727 647.784 84.6364 645.33 82.7273C642.875 80.8182 639.814 79.8636 636.148 79.8636C632.633 79.8636 629.648 80.7879 627.193 82.6364C624.739 84.4848 622.875 87.0758 621.602 90.4091C620.36 93.7424 619.739 97.6667 619.739 102.182Z" fill="#34A853"/>
<path d="M119 9V229M229 119H9M33.8205 51.3077C58.682 69.0443 88.4602 78.5777 119 78.5777C149.54 78.5777 179.318 69.0443 204.179 51.3077M204.179 186.692C179.318 168.956 149.54 159.422 119 159.422C88.4602 159.422 58.682 168.956 33.8205 186.692M110.538 11.8205C94.863 25.0588 82.265 41.5581 73.6234 60.167C64.9818 78.776 60.5049 99.0465 60.5049 119.564C60.5049 140.082 64.9818 160.352 73.6234 178.961C82.265 197.57 94.863 214.069 110.538 227.308M127.462 227.308C143.137 214.069 155.735 197.57 164.377 178.961C173.018 160.352 177.495 140.082 177.495 119.564C177.495 99.0465 173.018 78.776 164.377 60.167C155.735 41.5581 143.137 25.0588 127.462 11.8205M118.436 9C89.3113 9.14936 61.4348 20.843 40.9197 41.5165C20.4046 62.1901 8.92568 90.1557 9.00036 119.281C9.07504 148.405 20.6972 176.312 41.318 196.88C61.9389 217.448 89.8751 228.999 119 228.999C148.125 228.999 176.061 217.448 196.682 196.88C217.303 176.312 228.925 148.405 229 119.281C229.074 90.1557 217.595 62.1901 197.08 41.5165C176.565 20.843 148.689 9.14936 119.564 9H118.436Z" stroke="url(#paint0_linear_62_4)" stroke-width="18"/>
<path d="M263.795 182.663V180.455H275.401V182.663H270.905V195H268.291V182.663H263.795ZM281.701 195.213C280.635 195.213 279.712 194.979 278.931 194.51C278.15 194.041 277.543 193.385 277.113 192.543C276.686 191.7 276.473 190.715 276.473 189.588C276.473 188.461 276.686 187.474 277.113 186.626C277.543 185.779 278.15 185.121 278.931 184.652C279.712 184.183 280.635 183.949 281.701 183.949C282.766 183.949 283.689 184.183 284.471 184.652C285.252 185.121 285.855 185.779 286.282 186.626C286.712 187.474 286.928 188.461 286.928 189.588C286.928 190.715 286.712 191.7 286.282 192.543C285.855 193.385 285.252 194.041 284.471 194.51C283.689 194.979 282.766 195.213 281.701 195.213ZM281.715 193.153C282.292 193.153 282.775 192.995 283.164 192.678C283.552 192.356 283.841 191.925 284.03 191.385C284.224 190.845 284.321 190.244 284.321 189.581C284.321 188.913 284.224 188.31 284.03 187.77C283.841 187.225 283.552 186.792 283.164 186.47C282.775 186.148 282.292 185.987 281.715 185.987C281.123 185.987 280.631 186.148 280.238 186.47C279.849 186.792 279.558 187.225 279.364 187.77C279.175 188.31 279.08 188.913 279.08 189.581C279.08 190.244 279.175 190.845 279.364 191.385C279.558 191.925 279.849 192.356 280.238 192.678C280.631 192.995 281.123 193.153 281.715 193.153ZM290.11 199.091V184.091H292.638V185.895H292.788C292.92 185.63 293.107 185.348 293.349 185.05C293.59 184.747 293.917 184.489 294.329 184.276C294.741 184.058 295.266 183.949 295.906 183.949C296.748 183.949 297.508 184.164 298.185 184.595C298.867 185.021 299.407 185.653 299.805 186.491C300.207 187.325 300.408 188.348 300.408 189.56C300.408 190.758 300.212 191.776 299.819 192.614C299.426 193.452 298.891 194.091 298.214 194.531C297.537 194.972 296.77 195.192 295.913 195.192C295.288 195.192 294.769 195.088 294.357 194.879C293.945 194.671 293.614 194.42 293.363 194.126C293.117 193.828 292.925 193.546 292.788 193.281H292.681V199.091H290.11ZM292.631 189.545C292.631 190.251 292.731 190.869 292.93 191.399C293.133 191.929 293.424 192.344 293.803 192.642C294.187 192.936 294.651 193.082 295.195 193.082C295.763 193.082 296.239 192.931 296.623 192.628C297.006 192.32 297.295 191.901 297.489 191.371C297.688 190.836 297.788 190.227 297.788 189.545C297.788 188.868 297.691 188.267 297.496 187.741C297.302 187.216 297.013 186.804 296.63 186.506C296.246 186.207 295.768 186.058 295.195 186.058C294.646 186.058 294.18 186.203 293.796 186.491C293.413 186.78 293.121 187.185 292.923 187.706C292.728 188.227 292.631 188.84 292.631 189.545ZM310.222 187.884V190H303.674V187.884H310.222ZM326.49 185.362H323.834C323.758 184.927 323.619 184.541 323.415 184.205C323.212 183.864 322.958 183.575 322.655 183.338C322.352 183.101 322.007 182.924 321.618 182.805C321.235 182.682 320.82 182.621 320.375 182.621C319.585 182.621 318.884 182.82 318.273 183.217C317.662 183.61 317.184 184.188 316.838 184.95C316.493 185.708 316.32 186.634 316.32 187.727C316.32 188.84 316.493 189.777 316.838 190.54C317.189 191.297 317.667 191.87 318.273 192.259C318.884 192.642 319.582 192.834 320.368 192.834C320.804 192.834 321.211 192.777 321.59 192.663C321.973 192.545 322.317 192.372 322.62 192.145C322.927 191.918 323.185 191.638 323.394 191.307C323.607 190.975 323.754 190.597 323.834 190.17L326.49 190.185C326.391 190.876 326.176 191.525 325.844 192.131C325.517 192.737 325.089 193.272 324.559 193.736C324.028 194.195 323.408 194.555 322.698 194.815C321.988 195.071 321.199 195.199 320.333 195.199C319.054 195.199 317.913 194.903 316.909 194.311C315.906 193.719 315.115 192.865 314.537 191.747C313.96 190.63 313.671 189.29 313.671 187.727C313.671 186.16 313.962 184.82 314.544 183.707C315.127 182.59 315.92 181.735 316.924 181.143C317.927 180.552 319.064 180.256 320.333 180.256C321.142 180.256 321.895 180.369 322.591 180.597C323.287 180.824 323.908 181.158 324.452 181.598C324.997 182.034 325.444 182.569 325.794 183.203C326.15 183.833 326.382 184.553 326.49 185.362ZM332.361 180.455V195H329.79V180.455H332.361ZM339.144 195.22C338.453 195.22 337.83 195.097 337.276 194.851C336.727 194.6 336.291 194.231 335.969 193.743C335.652 193.255 335.493 192.654 335.493 191.939C335.493 191.323 335.607 190.814 335.834 190.412C336.061 190.009 336.372 189.688 336.765 189.446C337.158 189.205 337.6 189.022 338.093 188.899C338.59 188.771 339.104 188.679 339.634 188.622C340.273 188.556 340.792 188.497 341.189 188.445C341.587 188.388 341.876 188.303 342.056 188.189C342.24 188.071 342.333 187.888 342.333 187.642V187.599C342.333 187.064 342.174 186.65 341.857 186.357C341.54 186.063 341.083 185.916 340.486 185.916C339.856 185.916 339.357 186.054 338.988 186.328C338.623 186.603 338.377 186.927 338.249 187.301L335.848 186.96C336.038 186.297 336.35 185.743 336.786 185.298C337.221 184.848 337.754 184.512 338.384 184.29C339.014 184.062 339.71 183.949 340.472 183.949C340.998 183.949 341.521 184.01 342.042 184.134C342.562 184.257 343.038 184.46 343.469 184.744C343.9 185.024 344.246 185.405 344.506 185.888C344.771 186.371 344.904 186.974 344.904 187.699V195H342.432V193.501H342.347C342.191 193.804 341.971 194.089 341.686 194.354C341.407 194.614 341.054 194.825 340.628 194.986C340.207 195.142 339.712 195.22 339.144 195.22ZM339.811 193.331C340.328 193.331 340.775 193.229 341.154 193.026C341.533 192.817 341.824 192.543 342.027 192.202C342.236 191.861 342.34 191.489 342.34 191.087V189.801C342.259 189.867 342.122 189.929 341.928 189.986C341.739 190.043 341.525 190.092 341.289 190.135C341.052 190.178 340.818 190.215 340.586 190.249C340.354 190.282 340.152 190.31 339.982 190.334C339.598 190.386 339.255 190.471 338.952 190.589C338.649 190.708 338.41 190.874 338.235 191.087C338.06 191.295 337.972 191.565 337.972 191.896C337.972 192.37 338.145 192.727 338.49 192.969C338.836 193.21 339.276 193.331 339.811 193.331ZM357.111 186.974L354.767 187.23C354.701 186.993 354.585 186.771 354.419 186.562C354.258 186.354 354.041 186.186 353.766 186.058C353.491 185.93 353.155 185.866 352.757 185.866C352.222 185.866 351.773 185.982 351.408 186.214C351.048 186.446 350.871 186.747 350.875 187.116C350.871 187.434 350.987 187.692 351.223 187.891C351.465 188.089 351.863 188.253 352.417 188.381L354.277 188.778C355.31 189.001 356.077 189.354 356.578 189.837C357.085 190.32 357.341 190.952 357.346 191.733C357.341 192.42 357.14 193.026 356.742 193.551C356.349 194.072 355.802 194.479 355.101 194.773C354.4 195.066 353.596 195.213 352.686 195.213C351.351 195.213 350.276 194.934 349.462 194.375C348.648 193.812 348.162 193.028 348.006 192.024L350.513 191.783C350.627 192.275 350.868 192.647 351.238 192.898C351.607 193.149 352.087 193.274 352.679 193.274C353.29 193.274 353.78 193.149 354.15 192.898C354.524 192.647 354.711 192.337 354.711 191.967C354.711 191.655 354.59 191.397 354.348 191.193C354.112 190.99 353.742 190.833 353.24 190.724L351.38 190.334C350.333 190.116 349.559 189.749 349.057 189.233C348.555 188.712 348.307 188.054 348.311 187.259C348.307 186.586 348.489 186.004 348.858 185.511C349.232 185.014 349.751 184.631 350.414 184.361C351.081 184.086 351.851 183.949 352.722 183.949C354 183.949 355.007 184.221 355.74 184.766C356.479 185.31 356.936 186.046 357.111 186.974ZM369.088 186.974L366.744 187.23C366.678 186.993 366.562 186.771 366.396 186.562C366.235 186.354 366.017 186.186 365.743 186.058C365.468 185.93 365.132 185.866 364.734 185.866C364.199 185.866 363.749 185.982 363.385 186.214C363.025 186.446 362.847 186.747 362.852 187.116C362.847 187.434 362.963 187.692 363.2 187.891C363.441 188.089 363.839 188.253 364.393 188.381L366.254 188.778C367.286 189.001 368.053 189.354 368.555 189.837C369.062 190.32 369.317 190.952 369.322 191.733C369.317 192.42 369.116 193.026 368.718 193.551C368.325 194.072 367.779 194.479 367.078 194.773C366.377 195.066 365.572 195.213 364.663 195.213C363.328 195.213 362.253 194.934 361.439 194.375C360.624 193.812 360.139 193.028 359.983 192.024L362.49 191.783C362.603 192.275 362.845 192.647 363.214 192.898C363.583 193.149 364.064 193.274 364.656 193.274C365.267 193.274 365.757 193.149 366.126 192.898C366.5 192.647 366.687 192.337 366.687 191.967C366.687 191.655 366.566 191.397 366.325 191.193C366.088 190.99 365.719 190.833 365.217 190.724L363.356 190.334C362.31 190.116 361.536 189.749 361.034 189.233C360.532 188.712 360.283 188.054 360.288 187.259C360.283 186.586 360.466 186.004 360.835 185.511C361.209 185.014 361.727 184.631 362.39 184.361C363.058 184.086 363.827 183.949 364.699 183.949C365.977 183.949 366.983 184.221 367.717 184.766C368.456 185.31 368.913 186.046 369.088 186.974ZM381.578 195L377.473 180.455H380.306L382.927 191.143H383.062L385.86 180.455H388.439L391.244 191.151H391.372L393.993 180.455H396.826L392.721 195H390.122L387.21 184.794H387.096L384.177 195H381.578ZM403.256 195.213C402.162 195.213 401.218 194.986 400.422 194.531C399.632 194.072 399.023 193.423 398.597 192.585C398.171 191.742 397.958 190.75 397.958 189.609C397.958 188.487 398.171 187.502 398.597 186.655C399.028 185.803 399.629 185.14 400.401 184.666C401.173 184.188 402.079 183.949 403.121 183.949C403.793 183.949 404.428 184.058 405.025 184.276C405.626 184.489 406.156 184.82 406.615 185.27C407.079 185.72 407.444 186.293 407.709 186.989C407.974 187.68 408.107 188.504 408.107 189.46V190.249H399.165V188.516H405.642C405.638 188.023 405.531 187.585 405.323 187.202C405.114 186.813 404.823 186.508 404.449 186.286C404.08 186.063 403.649 185.952 403.157 185.952C402.631 185.952 402.169 186.08 401.772 186.335C401.374 186.586 401.064 186.918 400.841 187.33C400.623 187.737 400.512 188.184 400.507 188.672V190.185C400.507 190.819 400.623 191.364 400.855 191.818C401.087 192.268 401.412 192.614 401.828 192.855C402.245 193.092 402.733 193.21 403.292 193.21C403.666 193.21 404.004 193.158 404.307 193.054C404.61 192.945 404.873 192.786 405.096 192.578C405.318 192.37 405.486 192.112 405.6 191.804L408 192.074C407.849 192.708 407.56 193.262 407.134 193.736C406.712 194.205 406.173 194.569 405.515 194.83C404.856 195.085 404.104 195.213 403.256 195.213ZM411.396 195V180.455H413.967V185.895H414.073C414.206 185.63 414.393 185.348 414.634 185.05C414.876 184.747 415.202 184.489 415.614 184.276C416.026 184.058 416.552 183.949 417.191 183.949C418.034 183.949 418.794 184.164 419.471 184.595C420.153 185.021 420.692 185.653 421.09 186.491C421.493 187.325 421.694 188.348 421.694 189.56C421.694 190.758 421.497 191.776 421.104 192.614C420.711 193.452 420.176 194.091 419.499 194.531C418.822 194.972 418.055 195.192 417.198 195.192C416.573 195.192 416.055 195.088 415.643 194.879C415.231 194.671 414.899 194.42 414.648 194.126C414.402 193.828 414.21 193.546 414.073 193.281H413.924V195H411.396ZM413.917 189.545C413.917 190.251 414.016 190.869 414.215 191.399C414.419 191.929 414.71 192.344 415.089 192.642C415.472 192.936 415.936 193.082 416.481 193.082C417.049 193.082 417.525 192.931 417.908 192.628C418.292 192.32 418.581 191.901 418.775 191.371C418.974 190.836 419.073 190.227 419.073 189.545C419.073 188.868 418.976 188.267 418.782 187.741C418.588 187.216 418.299 186.804 417.915 186.506C417.532 186.207 417.054 186.058 416.481 186.058C415.932 186.058 415.465 186.203 415.082 186.491C414.698 186.78 414.407 187.185 414.208 187.706C414.014 188.227 413.917 188.84 413.917 189.545ZM433.502 186.974L431.158 187.23C431.092 186.993 430.976 186.771 430.81 186.562C430.649 186.354 430.431 186.186 430.157 186.058C429.882 185.93 429.546 185.866 429.148 185.866C428.613 185.866 428.163 185.982 427.799 186.214C427.439 186.446 427.261 186.747 427.266 187.116C427.261 187.434 427.377 187.692 427.614 187.891C427.855 188.089 428.253 188.253 428.807 188.381L430.668 188.778C431.7 189.001 432.467 189.354 432.969 189.837C433.476 190.32 433.731 190.952 433.736 191.733C433.731 192.42 433.53 193.026 433.132 193.551C432.739 194.072 432.193 194.479 431.492 194.773C430.791 195.066 429.986 195.213 429.077 195.213C427.742 195.213 426.667 194.934 425.853 194.375C425.038 193.812 424.553 193.028 424.397 192.024L426.904 191.783C427.017 192.275 427.259 192.647 427.628 192.898C427.998 193.149 428.478 193.274 429.07 193.274C429.681 193.274 430.171 193.149 430.54 192.898C430.914 192.647 431.101 192.337 431.101 191.967C431.101 191.655 430.98 191.397 430.739 191.193C430.502 190.99 430.133 190.833 429.631 190.724L427.77 190.334C426.724 190.116 425.95 189.749 425.448 189.233C424.946 188.712 424.697 188.054 424.702 187.259C424.697 186.586 424.88 186.004 425.249 185.511C425.623 185.014 426.141 184.631 426.804 184.361C427.472 184.086 428.241 183.949 429.113 183.949C430.391 183.949 431.397 184.221 432.131 184.766C432.87 185.31 433.327 186.046 433.502 186.974ZM436.856 195V184.091H439.427V195H436.856ZM438.149 182.543C437.742 182.543 437.391 182.408 437.098 182.138C436.804 181.863 436.657 181.534 436.657 181.151C436.657 180.762 436.804 180.433 437.098 180.163C437.391 179.889 437.742 179.751 438.149 179.751C438.561 179.751 438.911 179.889 439.2 180.163C439.493 180.433 439.64 180.762 439.64 181.151C439.64 181.534 439.493 181.863 439.2 182.138C438.911 182.408 438.561 182.543 438.149 182.543ZM448.518 184.091V186.08H442.247V184.091H448.518ZM443.795 181.477H446.366V191.719C446.366 192.064 446.419 192.33 446.523 192.514C446.632 192.694 446.774 192.817 446.949 192.884C447.124 192.95 447.318 192.983 447.531 192.983C447.692 192.983 447.839 192.971 447.972 192.947C448.109 192.924 448.213 192.902 448.284 192.884L448.717 194.893C448.58 194.941 448.384 194.993 448.128 195.05C447.877 195.107 447.569 195.14 447.205 195.149C446.561 195.168 445.981 195.071 445.464 194.858C444.948 194.64 444.539 194.304 444.236 193.849C443.938 193.395 443.791 192.827 443.795 192.145V181.477ZM456.381 195.213C455.287 195.213 454.343 194.986 453.547 194.531C452.757 194.072 452.148 193.423 451.722 192.585C451.296 191.742 451.083 190.75 451.083 189.609C451.083 188.487 451.296 187.502 451.722 186.655C452.153 185.803 452.754 185.14 453.526 184.666C454.298 184.188 455.204 183.949 456.246 183.949C456.918 183.949 457.553 184.058 458.15 184.276C458.751 184.489 459.281 184.82 459.74 185.27C460.204 185.72 460.569 186.293 460.834 186.989C461.099 187.68 461.232 188.504 461.232 189.46V190.249H452.29V188.516H458.767C458.763 188.023 458.656 187.585 458.448 187.202C458.239 186.813 457.948 186.508 457.574 186.286C457.205 186.063 456.774 185.952 456.282 185.952C455.756 185.952 455.294 186.08 454.897 186.335C454.499 186.586 454.189 186.918 453.966 187.33C453.748 187.737 453.637 188.184 453.632 188.672V190.185C453.632 190.819 453.748 191.364 453.98 191.818C454.212 192.268 454.537 192.614 454.953 192.855C455.37 193.092 455.858 193.21 456.417 193.21C456.791 193.21 457.129 193.158 457.432 193.054C457.735 192.945 457.998 192.786 458.221 192.578C458.443 192.37 458.611 192.112 458.725 191.804L461.125 192.074C460.974 192.708 460.685 193.262 460.259 193.736C459.837 194.205 459.298 194.569 458.64 194.83C457.981 195.085 457.229 195.213 456.381 195.213ZM467.425 193.011L467.333 193.793C467.267 194.389 467.148 194.995 466.978 195.611C466.812 196.231 466.637 196.802 466.452 197.322C466.268 197.843 466.119 198.253 466.005 198.551H464.272C464.338 198.262 464.428 197.869 464.542 197.372C464.66 196.875 464.774 196.316 464.883 195.696C464.992 195.076 465.065 194.446 465.103 193.807L465.153 193.011H467.425ZM476.931 195V180.455H482.499C483.55 180.455 484.424 180.62 485.12 180.952C485.82 181.278 486.344 181.726 486.689 182.294C487.04 182.862 487.215 183.506 487.215 184.226C487.215 184.818 487.101 185.324 486.874 185.746C486.647 186.162 486.341 186.501 485.958 186.761C485.574 187.022 485.146 187.209 484.672 187.322V187.464C485.188 187.493 485.683 187.652 486.157 187.94C486.635 188.224 487.025 188.627 487.328 189.148C487.632 189.669 487.783 190.298 487.783 191.037C487.783 191.79 487.601 192.467 487.236 193.068C486.872 193.665 486.322 194.136 485.588 194.482C484.855 194.827 483.931 195 482.819 195H476.931ZM479.566 192.798H482.4C483.356 192.798 484.045 192.616 484.466 192.251C484.892 191.882 485.105 191.409 485.105 190.831C485.105 190.4 484.999 190.012 484.786 189.666C484.573 189.316 484.27 189.041 483.877 188.842C483.484 188.639 483.015 188.537 482.471 188.537H479.566V192.798ZM479.566 186.641H482.172C482.627 186.641 483.036 186.558 483.401 186.392C483.766 186.222 484.052 185.982 484.26 185.675C484.473 185.362 484.58 184.993 484.58 184.567C484.58 184.003 484.381 183.539 483.983 183.175C483.59 182.81 483.006 182.628 482.229 182.628H479.566V186.641ZM497.915 190.412V184.091H500.486V195H497.993V193.061H497.879C497.633 193.672 497.228 194.171 496.665 194.56C496.106 194.948 495.417 195.142 494.598 195.142C493.883 195.142 493.251 194.983 492.702 194.666C492.157 194.344 491.731 193.878 491.423 193.267C491.116 192.652 490.962 191.908 490.962 191.037V184.091H493.533V190.639C493.533 191.33 493.722 191.88 494.101 192.287C494.48 192.694 494.977 192.898 495.592 192.898C495.971 192.898 496.338 192.805 496.693 192.621C497.048 192.436 497.339 192.161 497.567 191.797C497.799 191.428 497.915 190.966 497.915 190.412ZM508.178 195.192C507.321 195.192 506.554 194.972 505.877 194.531C505.2 194.091 504.665 193.452 504.272 192.614C503.879 191.776 503.682 190.758 503.682 189.56C503.682 188.348 503.881 187.325 504.279 186.491C504.681 185.653 505.223 185.021 505.905 184.595C506.587 184.164 507.347 183.949 508.185 183.949C508.824 183.949 509.35 184.058 509.762 184.276C510.174 184.489 510.5 184.747 510.742 185.05C510.983 185.348 511.17 185.63 511.303 185.895H511.409V180.455H513.988V195H511.459V193.281H511.303C511.17 193.546 510.979 193.828 510.728 194.126C510.477 194.42 510.145 194.671 509.733 194.879C509.321 195.088 508.803 195.192 508.178 195.192ZM508.895 193.082C509.44 193.082 509.904 192.936 510.287 192.642C510.671 192.344 510.962 191.929 511.161 191.399C511.36 190.869 511.459 190.251 511.459 189.545C511.459 188.84 511.36 188.227 511.161 187.706C510.967 187.185 510.678 186.78 510.294 186.491C509.916 186.203 509.449 186.058 508.895 186.058C508.322 186.058 507.844 186.207 507.461 186.506C507.077 186.804 506.788 187.216 506.594 187.741C506.4 188.267 506.303 188.868 506.303 189.545C506.303 190.227 506.4 190.836 506.594 191.371C506.793 191.901 507.084 192.32 507.468 192.628C507.856 192.931 508.332 193.082 508.895 193.082ZM522.472 199.318C521.548 199.318 520.755 199.193 520.092 198.942C519.429 198.696 518.897 198.364 518.494 197.947C518.092 197.531 517.812 197.069 517.656 196.562L519.972 196.001C520.076 196.214 520.227 196.425 520.426 196.634C520.625 196.847 520.893 197.022 521.229 197.159C521.57 197.301 521.998 197.372 522.514 197.372C523.243 197.372 523.847 197.195 524.325 196.839C524.804 196.489 525.043 195.911 525.043 195.107V193.04H524.915C524.782 193.305 524.588 193.577 524.332 193.857C524.081 194.136 523.748 194.37 523.331 194.56C522.919 194.749 522.401 194.844 521.776 194.844C520.938 194.844 520.178 194.647 519.496 194.254C518.819 193.857 518.279 193.265 517.876 192.479C517.479 191.688 517.28 190.698 517.28 189.51C517.28 188.312 517.479 187.301 517.876 186.477C518.279 185.649 518.821 185.021 519.503 184.595C520.185 184.164 520.945 183.949 521.783 183.949C522.422 183.949 522.947 184.058 523.359 184.276C523.776 184.489 524.107 184.747 524.354 185.05C524.6 185.348 524.787 185.63 524.915 185.895H525.057V184.091H527.592V195.178C527.592 196.11 527.37 196.882 526.925 197.493C526.48 198.104 525.871 198.561 525.099 198.864C524.328 199.167 523.452 199.318 522.472 199.318ZM522.493 192.827C523.037 192.827 523.501 192.694 523.885 192.429C524.268 192.164 524.56 191.783 524.759 191.286C524.957 190.788 525.057 190.192 525.057 189.496C525.057 188.809 524.957 188.208 524.759 187.692C524.564 187.176 524.276 186.776 523.892 186.491C523.513 186.203 523.047 186.058 522.493 186.058C521.92 186.058 521.442 186.207 521.058 186.506C520.675 186.804 520.386 187.214 520.192 187.734C519.998 188.25 519.901 188.838 519.901 189.496C519.901 190.163 519.998 190.748 520.192 191.25C520.391 191.747 520.682 192.135 521.065 192.415C521.454 192.689 521.929 192.827 522.493 192.827ZM536.057 195.213C534.963 195.213 534.018 194.986 533.223 194.531C532.432 194.072 531.824 193.423 531.398 192.585C530.972 191.742 530.759 190.75 530.759 189.609C530.759 188.487 530.972 187.502 531.398 186.655C531.829 185.803 532.43 185.14 533.202 184.666C533.973 184.188 534.88 183.949 535.922 183.949C536.594 183.949 537.229 184.058 537.825 184.276C538.427 184.489 538.957 184.82 539.416 185.27C539.88 185.72 540.245 186.293 540.51 186.989C540.775 187.68 540.908 188.504 540.908 189.46V190.249H531.966V188.516H538.443C538.438 188.023 538.332 187.585 538.124 187.202C537.915 186.813 537.624 186.508 537.25 186.286C536.881 186.063 536.45 185.952 535.957 185.952C535.432 185.952 534.97 186.08 534.572 186.335C534.175 186.586 533.865 186.918 533.642 187.33C533.424 187.737 533.313 188.184 533.308 188.672V190.185C533.308 190.819 533.424 191.364 533.656 191.818C533.888 192.268 534.213 192.614 534.629 192.855C535.046 193.092 535.534 193.21 536.092 193.21C536.466 193.21 536.805 193.158 537.108 193.054C537.411 192.945 537.674 192.786 537.896 192.578C538.119 192.37 538.287 192.112 538.401 191.804L540.801 192.074C540.65 192.708 540.361 193.262 539.935 193.736C539.513 194.205 538.973 194.569 538.315 194.83C537.657 195.085 536.904 195.213 536.057 195.213ZM549.53 184.091V186.08H543.259V184.091H549.53ZM544.807 181.477H547.378V191.719C547.378 192.064 547.43 192.33 547.534 192.514C547.643 192.694 547.785 192.817 547.961 192.884C548.136 192.95 548.33 192.983 548.543 192.983C548.704 192.983 548.851 192.971 548.983 192.947C549.121 192.924 549.225 192.902 549.296 192.884L549.729 194.893C549.592 194.941 549.395 194.993 549.14 195.05C548.889 195.107 548.581 195.14 548.216 195.149C547.572 195.168 546.992 195.071 546.476 194.858C545.96 194.64 545.551 194.304 545.248 193.849C544.949 193.395 544.802 192.827 544.807 192.145V181.477ZM571.752 187.727C571.752 189.295 571.459 190.637 570.871 191.754C570.289 192.867 569.494 193.719 568.485 194.311C567.481 194.903 566.343 195.199 565.069 195.199C563.795 195.199 562.654 194.903 561.646 194.311C560.642 193.714 559.846 192.86 559.259 191.747C558.677 190.63 558.386 189.29 558.386 187.727C558.386 186.16 558.677 184.82 559.259 183.707C559.846 182.59 560.642 181.735 561.646 181.143C562.654 180.552 563.795 180.256 565.069 180.256C566.343 180.256 567.481 180.552 568.485 181.143C569.494 181.735 570.289 182.59 570.871 183.707C571.459 184.82 571.752 186.16 571.752 187.727ZM569.103 187.727C569.103 186.624 568.93 185.694 568.585 184.936C568.244 184.174 567.77 183.598 567.164 183.21C566.558 182.817 565.86 182.621 565.069 182.621C564.278 182.621 563.58 182.817 562.974 183.21C562.368 183.598 561.892 184.174 561.546 184.936C561.205 185.694 561.035 186.624 561.035 187.727C561.035 188.83 561.205 189.763 561.546 190.526C561.892 191.283 562.368 191.858 562.974 192.251C563.58 192.64 564.278 192.834 565.069 192.834C565.86 192.834 566.558 192.64 567.164 192.251C567.77 191.858 568.244 191.283 568.585 190.526C568.93 189.763 569.103 188.83 569.103 187.727ZM575.13 199.091V184.091H577.658V185.895H577.807C577.94 185.63 578.127 185.348 578.368 185.05C578.61 184.747 578.936 184.489 579.348 184.276C579.76 184.058 580.286 183.949 580.925 183.949C581.768 183.949 582.528 184.164 583.205 184.595C583.887 185.021 584.426 185.653 584.824 186.491C585.227 187.325 585.428 188.348 585.428 189.56C585.428 190.758 585.231 191.776 584.838 192.614C584.445 193.452 583.91 194.091 583.233 194.531C582.556 194.972 581.789 195.192 580.932 195.192C580.307 195.192 579.789 195.088 579.377 194.879C578.965 194.671 578.633 194.42 578.382 194.126C578.136 193.828 577.944 193.546 577.807 193.281H577.701V199.091H575.13ZM577.651 189.545C577.651 190.251 577.75 190.869 577.949 191.399C578.153 191.929 578.444 192.344 578.823 192.642C579.206 192.936 579.67 193.082 580.215 193.082C580.783 193.082 581.259 192.931 581.642 192.628C582.026 192.32 582.315 191.901 582.509 191.371C582.708 190.836 582.807 190.227 582.807 189.545C582.807 188.868 582.71 188.267 582.516 187.741C582.322 187.216 582.033 186.804 581.65 186.506C581.266 186.207 580.788 186.058 580.215 186.058C579.666 186.058 579.199 186.203 578.816 186.491C578.432 186.78 578.141 187.185 577.942 187.706C577.748 188.227 577.651 188.84 577.651 189.545ZM594.077 184.091V186.08H587.806V184.091H594.077ZM589.354 181.477H591.925V191.719C591.925 192.064 591.977 192.33 592.081 192.514C592.19 192.694 592.332 192.817 592.507 192.884C592.683 192.95 592.877 192.983 593.09 192.983C593.251 192.983 593.398 192.971 593.53 192.947C593.667 192.924 593.772 192.902 593.843 192.884L594.276 194.893C594.139 194.941 593.942 194.993 593.686 195.05C593.435 195.107 593.128 195.14 592.763 195.149C592.119 195.168 591.539 195.071 591.023 194.858C590.507 194.64 590.097 194.304 589.794 193.849C589.496 193.395 589.349 192.827 589.354 192.145V181.477ZM597.227 195V184.091H599.798V195H597.227ZM598.52 182.543C598.113 182.543 597.762 182.408 597.469 182.138C597.175 181.863 597.028 181.534 597.028 181.151C597.028 180.762 597.175 180.433 597.469 180.163C597.762 179.889 598.113 179.751 598.52 179.751C598.932 179.751 599.282 179.889 599.571 180.163C599.865 180.433 600.011 180.762 600.011 181.151C600.011 181.534 599.865 181.863 599.571 182.138C599.282 182.408 598.932 182.543 598.52 182.543ZM603.442 195V184.091H605.9V185.945H606.027C606.255 185.32 606.631 184.832 607.157 184.482C607.682 184.126 608.31 183.949 609.039 183.949C609.777 183.949 610.4 184.129 610.907 184.489C611.418 184.844 611.778 185.329 611.986 185.945H612.1C612.341 185.339 612.748 184.856 613.321 184.496C613.899 184.131 614.583 183.949 615.374 183.949C616.378 183.949 617.197 184.266 617.831 184.901C618.466 185.535 618.783 186.461 618.783 187.678V195H616.205V188.075C616.205 187.398 616.025 186.903 615.665 186.591C615.305 186.274 614.865 186.115 614.344 186.115C613.724 186.115 613.239 186.309 612.888 186.697C612.542 187.081 612.37 187.58 612.37 188.196V195H609.848V187.969C609.848 187.405 609.678 186.955 609.337 186.619C609.001 186.283 608.56 186.115 608.016 186.115C607.647 186.115 607.31 186.21 607.007 186.399C606.704 186.584 606.463 186.847 606.283 187.188C606.103 187.524 606.013 187.917 606.013 188.366V195H603.442ZM622.391 195V184.091H624.962V195H622.391ZM623.684 182.543C623.277 182.543 622.926 182.408 622.633 182.138C622.339 181.863 622.192 181.534 622.192 181.151C622.192 180.762 622.339 180.433 622.633 180.163C622.926 179.889 623.277 179.751 623.684 179.751C624.096 179.751 624.446 179.889 624.735 180.163C625.029 180.433 625.175 180.762 625.175 181.151C625.175 181.534 625.029 181.863 624.735 182.138C624.446 182.408 624.096 182.543 623.684 182.543ZM628.464 195V193.366L634.089 186.314V186.222H628.649V184.091H637.235V185.845L631.88 192.777V192.869H637.42V195H628.464ZM645.354 195.213C644.26 195.213 643.315 194.986 642.52 194.531C641.729 194.072 641.121 193.423 640.695 192.585C640.268 191.742 640.055 190.75 640.055 189.609C640.055 188.487 640.268 187.502 640.695 186.655C641.125 185.803 641.727 185.14 642.499 184.666C643.27 184.188 644.177 183.949 645.219 183.949C645.891 183.949 646.526 184.058 647.122 184.276C647.723 184.489 648.254 184.82 648.713 185.27C649.177 185.72 649.542 186.293 649.807 186.989C650.072 187.68 650.205 188.504 650.205 189.46V190.249H641.263V188.516H647.74C647.735 188.023 647.629 187.585 647.42 187.202C647.212 186.813 646.921 186.508 646.547 186.286C646.178 186.063 645.747 185.952 645.254 185.952C644.729 185.952 644.267 186.08 643.869 186.335C643.472 186.586 643.161 186.918 642.939 187.33C642.721 187.737 642.61 188.184 642.605 188.672V190.185C642.605 190.819 642.721 191.364 642.953 191.818C643.185 192.268 643.509 192.614 643.926 192.855C644.343 193.092 644.83 193.21 645.389 193.21C645.763 193.21 646.102 193.158 646.405 193.054C646.708 192.945 646.971 192.786 647.193 192.578C647.416 192.37 647.584 192.112 647.697 191.804L650.098 192.074C649.946 192.708 649.658 193.262 649.232 193.736C648.81 194.205 648.27 194.569 647.612 194.83C646.954 195.085 646.201 195.213 645.354 195.213ZM657.428 195.192C656.571 195.192 655.804 194.972 655.127 194.531C654.45 194.091 653.915 193.452 653.522 192.614C653.129 191.776 652.932 190.758 652.932 189.56C652.932 188.348 653.131 187.325 653.529 186.491C653.931 185.653 654.473 185.021 655.155 184.595C655.837 184.164 656.597 183.949 657.435 183.949C658.074 183.949 658.6 184.058 659.012 184.276C659.424 184.489 659.75 184.747 659.992 185.05C660.233 185.348 660.42 185.63 660.553 185.895H660.659V180.455H663.238V195H660.709V193.281H660.553C660.42 193.546 660.229 193.828 659.978 194.126C659.727 194.42 659.395 194.671 658.983 194.879C658.571 195.088 658.053 195.192 657.428 195.192ZM658.145 193.082C658.69 193.082 659.154 192.936 659.537 192.642C659.921 192.344 660.212 191.929 660.411 191.399C660.61 190.869 660.709 190.251 660.709 189.545C660.709 188.84 660.61 188.227 660.411 187.706C660.217 187.185 659.928 186.78 659.544 186.491C659.166 186.203 658.699 186.058 658.145 186.058C657.572 186.058 657.094 186.207 656.711 186.506C656.327 186.804 656.038 187.216 655.844 187.741C655.65 188.267 655.553 188.868 655.553 189.545C655.553 190.227 655.65 190.836 655.844 191.371C656.043 191.901 656.334 192.32 656.718 192.628C657.106 192.931 657.582 193.082 658.145 193.082Z" fill="url(#paint1_linear_62_4)"/>
<defs>
<linearGradient id="paint0_linear_62_4" x1="229" y1="119" x2="9" y2="119" gradientUnits="userSpaceOnUse">
<stop stop-color="#34A853"/>
<stop offset="1" stop-color="#4285F4"/>
</linearGradient>
<linearGradient id="paint1_linear_62_4" x1="263" y1="200" x2="670" y2="200" gradientUnits="userSpaceOnUse">
<stop stop-color="#4285F4"/>
<stop offset="1" stop-color="#34A853"/>
</linearGradient>
</defs>
</svg>
