<svg width="670" height="238" viewBox="0 0 670 238" fill="none" xmlns="http://www.w3.org/2000/svg">
<path d="M296.455 138.455C289.636 138.455 283.727 136.955 278.727 133.955C273.727 130.955 269.848 126.758 267.091 121.364C264.364 115.97 263 109.667 263 102.455C263 95.2424 264.364 88.9242 267.091 83.5C269.848 78.0758 273.727 73.8636 278.727 70.8636C283.727 67.8636 289.636 66.3636 296.455 66.3636C303.273 66.3636 309.182 67.8636 314.182 70.8636C319.182 73.8636 323.045 78.0758 325.773 83.5C328.53 88.9242 329.909 95.2424 329.909 102.455C329.909 109.667 328.53 115.97 325.773 121.364C323.045 126.758 319.182 130.955 314.182 133.955C309.182 136.955 303.273 138.455 296.455 138.455ZM296.545 125.273C300.242 125.273 303.333 124.258 305.818 122.227C308.303 120.167 310.152 117.409 311.364 113.955C312.606 110.5 313.227 106.652 313.227 102.409C313.227 98.1364 312.606 94.2727 311.364 90.8182C310.152 87.3333 308.303 84.5606 305.818 82.5C303.333 80.4394 300.242 79.4091 296.545 79.4091C292.758 79.4091 289.606 80.4394 287.091 82.5C284.606 84.5606 282.742 87.3333 281.5 90.8182C280.288 94.2727 279.682 98.1364 279.682 102.409C279.682 106.652 280.288 110.5 281.5 113.955C282.742 117.409 284.606 120.167 287.091 122.227C289.606 124.258 292.758 125.273 296.545 125.273Z" fill="#4285F4"/>
<path d="M343.875 163.273V67.2727H360.057V78.8182H361.011C361.86 77.1212 363.057 75.3182 364.602 73.4091C366.148 71.4697 368.239 69.8182 370.875 68.4545C373.511 67.0606 376.875 66.3636 380.966 66.3636C386.36 66.3636 391.223 67.7424 395.557 70.5C399.92 73.2273 403.375 77.2727 405.92 82.6364C408.496 87.9697 409.784 94.5152 409.784 102.273C409.784 109.939 408.527 116.455 406.011 121.818C403.496 127.182 400.072 131.273 395.739 134.091C391.405 136.909 386.496 138.318 381.011 138.318C377.011 138.318 373.693 137.652 371.057 136.318C368.42 134.985 366.299 133.379 364.693 131.5C363.117 129.591 361.89 127.788 361.011 126.091H360.33V163.273H343.875ZM360.011 102.182C360.011 106.697 360.648 110.652 361.92 114.045C363.223 117.439 365.087 120.091 367.511 122C369.966 123.879 372.936 124.818 376.42 124.818C380.057 124.818 383.102 123.848 385.557 121.909C388.011 119.939 389.86 117.258 391.102 113.864C392.375 110.439 393.011 106.545 393.011 102.182C393.011 97.8485 392.39 94 391.148 90.6364C389.905 87.2727 388.057 84.6364 385.602 82.7273C383.148 80.8182 380.087 79.8636 376.42 79.8636C372.905 79.8636 369.92 80.7879 367.466 82.6364C365.011 84.4848 363.148 87.0758 361.875 90.4091C360.633 93.7424 360.011 97.6667 360.011 102.182Z" fill="#EA4335"/>
<path d="M436.284 137.091L416.557 67.2727H433.33L445.602 116.364H446.239L458.784 67.2727H475.375L487.92 116.091H488.602L500.693 67.2727H517.511L497.739 137.091H480.602L467.511 89.9091H466.557L453.466 137.091H436.284Z" fill="#FBBE0D"/>
<path d="M557.909 138.455C550.909 138.455 544.864 137 539.773 134.091C534.712 131.152 530.818 127 528.091 121.636C525.364 116.242 524 109.894 524 102.591C524 95.4091 525.364 89.1061 528.091 83.6818C530.848 78.2273 534.697 73.9848 539.636 70.9545C544.576 67.8939 550.379 66.3636 557.045 66.3636C561.348 66.3636 565.409 67.0606 569.227 68.4545C573.076 69.8182 576.47 71.9394 579.409 74.8182C582.379 77.697 584.712 81.3636 586.409 85.8182C588.106 90.2424 588.955 95.5152 588.955 101.636V106.682H531.727V95.5909H573.182C573.152 92.4394 572.47 89.6364 571.136 87.1818C569.803 84.697 567.939 82.7424 565.545 81.3182C563.182 79.8939 560.424 79.1818 557.273 79.1818C553.909 79.1818 550.955 80 548.409 81.6364C545.864 83.2424 543.879 85.3636 542.455 88C541.061 90.6061 540.348 93.4697 540.318 96.5909V106.273C540.318 110.333 541.061 113.818 542.545 116.727C544.03 119.606 546.106 121.818 548.773 123.364C551.439 124.879 554.561 125.636 558.136 125.636C560.53 125.636 562.697 125.303 564.636 124.636C566.576 123.939 568.258 122.924 569.682 121.591C571.106 120.258 572.182 118.606 572.909 116.636L588.273 118.364C587.303 122.424 585.455 125.97 582.727 129C580.03 132 576.576 134.333 572.364 136C568.152 137.636 563.333 138.455 557.909 138.455Z" fill="#4285F4"/>
<path d="M603.602 137.091V44H620.057V78.8182H620.739C621.587 77.1212 622.784 75.3182 624.33 73.4091C625.875 71.4697 627.966 69.8182 630.602 68.4545C633.239 67.0606 636.602 66.3636 640.693 66.3636C646.087 66.3636 650.951 67.7424 655.284 70.5C659.648 73.2273 663.102 77.2727 665.648 82.6364C668.223 87.9697 669.511 94.5152 669.511 102.273C669.511 109.939 668.254 116.455 665.739 121.818C663.223 127.182 659.799 131.273 655.466 134.091C651.133 136.909 646.223 138.318 640.739 138.318C636.739 138.318 633.42 137.652 630.784 136.318C628.148 134.985 626.027 133.379 624.42 131.5C622.845 129.591 621.617 127.788 620.739 126.091H619.784V137.091H603.602ZM619.739 102.182C619.739 106.697 620.375 110.652 621.648 114.045C622.951 117.439 624.814 120.091 627.239 122C629.693 123.879 632.663 124.818 636.148 124.818C639.784 124.818 642.83 123.848 645.284 121.909C647.739 119.939 649.587 117.258 650.83 113.864C652.102 110.439 652.739 106.545 652.739 102.182C652.739 97.8485 652.117 94 650.875 90.6364C649.633 87.2727 647.784 84.6364 645.33 82.7273C642.875 80.8182 639.814 79.8636 636.148 79.8636C632.633 79.8636 629.648 80.7879 627.193 82.6364C624.739 84.4848 622.875 87.0758 621.602 90.4091C620.36 93.7424 619.739 97.6667 619.739 102.182Z" fill="#34A853"/>
<path d="M119 9V229M229 119H9M33.8205 51.3077C58.682 69.0443 88.4602 78.5777 119 78.5777C149.54 78.5777 179.318 69.0443 204.179 51.3077M204.179 186.692C179.318 168.956 149.54 159.422 119 159.422C88.4602 159.422 58.682 168.956 33.8205 186.692M110.538 11.8205C94.863 25.0588 82.265 41.5581 73.6234 60.167C64.9818 78.776 60.5049 99.0465 60.5049 119.564C60.5049 140.082 64.9818 160.352 73.6234 178.961C82.265 197.57 94.863 214.069 110.538 227.308M127.462 227.308C143.137 214.069 155.735 197.57 164.377 178.961C173.018 160.352 177.495 140.082 177.495 119.564C177.495 99.0465 173.018 78.776 164.377 60.167C155.735 41.5581 143.137 25.0588 127.462 11.8205M118.436 9C89.3113 9.14936 61.4348 20.843 40.9197 41.5165C20.4046 62.1901 8.92568 90.1557 9.00036 119.281C9.07504 148.405 20.6972 176.312 41.318 196.88C61.9389 217.448 89.8751 228.999 119 228.999C148.125 228.999 176.061 217.448 196.682 196.88C217.303 176.312 228.925 148.405 229 119.281C229.074 90.1557 217.595 62.1901 197.08 41.5165C176.565 20.843 148.689 9.14936 119.564 9H118.436Z" stroke="url(#paint0_linear_2_23)" stroke-width="18"/>
<path d="M266.256 179.364V191H264.148V179.364H266.256ZM271.304 185.886V191H269.247V182.273H271.213V183.756H271.316C271.516 183.267 271.836 182.879 272.276 182.591C272.719 182.303 273.266 182.159 273.918 182.159C274.52 182.159 275.045 182.288 275.492 182.545C275.943 182.803 276.291 183.176 276.537 183.665C276.787 184.153 276.91 184.746 276.907 185.443V191H274.85V185.761C274.85 185.178 274.698 184.722 274.395 184.392C274.096 184.062 273.681 183.898 273.151 183.898C272.791 183.898 272.471 183.977 272.191 184.136C271.914 184.292 271.696 184.517 271.537 184.812C271.382 185.108 271.304 185.466 271.304 185.886ZM286.695 184.58L284.82 184.784C284.767 184.595 284.674 184.417 284.542 184.25C284.413 184.083 284.239 183.949 284.019 183.847C283.799 183.744 283.53 183.693 283.212 183.693C282.784 183.693 282.424 183.786 282.133 183.972C281.845 184.157 281.703 184.398 281.707 184.693C281.703 184.947 281.796 185.153 281.985 185.312C282.178 185.472 282.496 185.602 282.939 185.705L284.428 186.023C285.254 186.201 285.868 186.483 286.269 186.869C286.674 187.256 286.879 187.761 286.883 188.386C286.879 188.936 286.718 189.42 286.4 189.841C286.085 190.258 285.648 190.583 285.087 190.818C284.527 191.053 283.883 191.17 283.155 191.17C282.087 191.17 281.227 190.947 280.576 190.5C279.924 190.049 279.536 189.422 279.411 188.619L281.417 188.426C281.508 188.82 281.701 189.117 281.996 189.318C282.292 189.519 282.676 189.619 283.15 189.619C283.638 189.619 284.03 189.519 284.326 189.318C284.625 189.117 284.775 188.869 284.775 188.574C284.775 188.324 284.678 188.117 284.485 187.955C284.296 187.792 284 187.667 283.599 187.58L282.11 187.267C281.273 187.093 280.654 186.799 280.252 186.386C279.85 185.97 279.652 185.443 279.655 184.807C279.652 184.269 279.797 183.803 280.093 183.409C280.392 183.011 280.807 182.705 281.337 182.489C281.871 182.269 282.487 182.159 283.184 182.159C284.207 182.159 285.011 182.377 285.599 182.812C286.189 183.248 286.555 183.837 286.695 184.58ZM293.737 182.273V183.864H288.72V182.273H293.737ZM289.958 180.182H292.015V188.375C292.015 188.652 292.057 188.864 292.14 189.011C292.227 189.155 292.341 189.254 292.481 189.307C292.621 189.36 292.776 189.386 292.947 189.386C293.076 189.386 293.193 189.377 293.299 189.358C293.409 189.339 293.492 189.322 293.549 189.307L293.896 190.915C293.786 190.953 293.629 190.994 293.424 191.04C293.223 191.085 292.977 191.112 292.686 191.119C292.17 191.134 291.706 191.057 291.293 190.886C290.881 190.712 290.553 190.443 290.311 190.08C290.072 189.716 289.954 189.261 289.958 188.716V180.182ZM298.768 191.176C298.215 191.176 297.717 191.078 297.274 190.881C296.834 190.68 296.486 190.384 296.228 189.994C295.975 189.604 295.848 189.123 295.848 188.551C295.848 188.059 295.939 187.652 296.12 187.33C296.302 187.008 296.55 186.75 296.865 186.557C297.179 186.364 297.533 186.218 297.927 186.119C298.325 186.017 298.736 185.943 299.16 185.898C299.672 185.845 300.086 185.797 300.405 185.756C300.723 185.71 300.954 185.642 301.098 185.551C301.245 185.456 301.319 185.311 301.319 185.114V185.08C301.319 184.652 301.192 184.32 300.939 184.085C300.685 183.85 300.319 183.733 299.842 183.733C299.338 183.733 298.939 183.843 298.643 184.062C298.352 184.282 298.155 184.542 298.052 184.841L296.132 184.568C296.283 184.038 296.533 183.595 296.882 183.239C297.23 182.879 297.656 182.61 298.16 182.432C298.664 182.25 299.221 182.159 299.831 182.159C300.251 182.159 300.67 182.208 301.086 182.307C301.503 182.405 301.884 182.568 302.228 182.795C302.573 183.019 302.85 183.324 303.058 183.71C303.27 184.097 303.376 184.58 303.376 185.159V191H301.399V189.801H301.331C301.206 190.044 301.03 190.271 300.802 190.483C300.579 190.691 300.297 190.86 299.956 190.989C299.619 191.114 299.223 191.176 298.768 191.176ZM299.302 189.665C299.715 189.665 300.073 189.583 300.376 189.42C300.679 189.254 300.912 189.034 301.075 188.761C301.242 188.489 301.325 188.191 301.325 187.869V186.841C301.261 186.894 301.151 186.943 300.995 186.989C300.844 187.034 300.673 187.074 300.484 187.108C300.295 187.142 300.107 187.172 299.922 187.199C299.736 187.225 299.575 187.248 299.439 187.267C299.132 187.309 298.857 187.377 298.615 187.472C298.372 187.566 298.181 187.699 298.041 187.869C297.901 188.036 297.831 188.252 297.831 188.517C297.831 188.896 297.969 189.182 298.245 189.375C298.522 189.568 298.874 189.665 299.302 189.665ZM308.301 185.886V191H306.244V182.273H308.21V183.756H308.312C308.513 183.267 308.833 182.879 309.273 182.591C309.716 182.303 310.263 182.159 310.915 182.159C311.517 182.159 312.042 182.288 312.489 182.545C312.939 182.803 313.288 183.176 313.534 183.665C313.784 184.153 313.907 184.746 313.903 185.443V191H311.847V185.761C311.847 185.178 311.695 184.722 311.392 184.392C311.093 184.062 310.678 183.898 310.148 183.898C309.788 183.898 309.468 183.977 309.188 184.136C308.911 184.292 308.693 184.517 308.534 184.812C308.379 185.108 308.301 185.466 308.301 185.886ZM321.152 182.273V183.864H316.135V182.273H321.152ZM317.374 180.182H319.431V188.375C319.431 188.652 319.472 188.864 319.556 189.011C319.643 189.155 319.756 189.254 319.897 189.307C320.037 189.36 320.192 189.386 320.362 189.386C320.491 189.386 320.609 189.377 320.715 189.358C320.825 189.339 320.908 189.322 320.965 189.307L321.311 190.915C321.202 190.953 321.044 190.994 320.84 191.04C320.639 191.085 320.393 191.112 320.101 191.119C319.586 191.134 319.122 191.057 318.709 190.886C318.296 190.712 317.969 190.443 317.726 190.08C317.487 189.716 317.37 189.261 317.374 188.716V180.182ZM326.087 189.409L326.013 190.034C325.96 190.511 325.866 190.996 325.729 191.489C325.597 191.985 325.457 192.441 325.309 192.858C325.161 193.275 325.042 193.602 324.951 193.841H323.564C323.618 193.61 323.689 193.295 323.78 192.898C323.875 192.5 323.966 192.053 324.053 191.557C324.14 191.061 324.199 190.557 324.229 190.045L324.269 189.409H326.087ZM335.186 191H332.936L337.032 179.364H339.635L343.737 191H341.487L338.379 181.75H338.288L335.186 191ZM335.26 186.438H341.396V188.131H335.26V186.438ZM350.29 182.273V183.864H345.131V182.273H350.29ZM346.42 191V181.449C346.42 180.862 346.542 180.373 346.784 179.983C347.03 179.593 347.36 179.301 347.773 179.108C348.186 178.915 348.644 178.818 349.148 178.818C349.504 178.818 349.82 178.847 350.097 178.903C350.373 178.96 350.578 179.011 350.71 179.057L350.301 180.648C350.214 180.621 350.104 180.595 349.972 180.568C349.839 180.538 349.691 180.523 349.528 180.523C349.146 180.523 348.875 180.616 348.716 180.801C348.561 180.983 348.483 181.244 348.483 181.585V191H346.42ZM357.121 182.273V183.864H351.962V182.273H357.121ZM353.252 191V181.449C353.252 180.862 353.373 180.373 353.615 179.983C353.862 179.593 354.191 179.301 354.604 179.108C355.017 178.915 355.475 178.818 355.979 178.818C356.335 178.818 356.651 178.847 356.928 178.903C357.204 178.96 357.409 179.011 357.541 179.057L357.132 180.648C357.045 180.621 356.935 180.595 356.803 180.568C356.67 180.538 356.523 180.523 356.36 180.523C355.977 180.523 355.706 180.616 355.547 180.801C355.392 180.983 355.314 181.244 355.314 181.585V191H353.252ZM363.011 191.17C362.158 191.17 361.42 190.983 360.795 190.608C360.17 190.233 359.685 189.708 359.34 189.034C358.999 188.36 358.829 187.572 358.829 186.67C358.829 185.769 358.999 184.979 359.34 184.301C359.685 183.623 360.17 183.097 360.795 182.722C361.42 182.347 362.158 182.159 363.011 182.159C363.863 182.159 364.601 182.347 365.226 182.722C365.851 183.097 366.334 183.623 366.675 184.301C367.02 184.979 367.192 185.769 367.192 186.67C367.192 187.572 367.02 188.36 366.675 189.034C366.334 189.708 365.851 190.233 365.226 190.608C364.601 190.983 363.863 191.17 363.011 191.17ZM363.022 189.523C363.484 189.523 363.87 189.396 364.181 189.142C364.492 188.884 364.723 188.54 364.874 188.108C365.029 187.676 365.107 187.195 365.107 186.665C365.107 186.131 365.029 185.648 364.874 185.216C364.723 184.78 364.492 184.434 364.181 184.176C363.87 183.919 363.484 183.79 363.022 183.79C362.548 183.79 362.154 183.919 361.84 184.176C361.529 184.434 361.296 184.78 361.141 185.216C360.99 185.648 360.914 186.131 360.914 186.665C360.914 187.195 360.99 187.676 361.141 188.108C361.296 188.54 361.529 188.884 361.84 189.142C362.154 189.396 362.548 189.523 363.022 189.523ZM369.738 191V182.273H371.732V183.727H371.823C371.982 183.223 372.255 182.835 372.641 182.562C373.032 182.286 373.477 182.148 373.977 182.148C374.09 182.148 374.217 182.153 374.357 182.165C374.501 182.172 374.621 182.186 374.715 182.205V184.097C374.628 184.066 374.49 184.04 374.301 184.017C374.115 183.991 373.935 183.977 373.761 183.977C373.386 183.977 373.049 184.059 372.749 184.222C372.454 184.381 372.221 184.602 372.051 184.886C371.88 185.17 371.795 185.498 371.795 185.869V191H369.738ZM379.761 191.153C379.075 191.153 378.462 190.977 377.92 190.625C377.379 190.273 376.95 189.761 376.636 189.091C376.322 188.42 376.164 187.606 376.164 186.648C376.164 185.678 376.324 184.86 376.642 184.193C376.964 183.523 377.397 183.017 377.943 182.676C378.488 182.331 379.096 182.159 379.767 182.159C380.278 182.159 380.699 182.246 381.028 182.42C381.358 182.591 381.619 182.797 381.812 183.04C382.005 183.278 382.155 183.504 382.261 183.716H382.346V179.364H384.409V191H382.386V189.625H382.261C382.155 189.837 382.002 190.062 381.801 190.301C381.6 190.536 381.335 190.737 381.005 190.903C380.676 191.07 380.261 191.153 379.761 191.153ZM380.335 189.466C380.771 189.466 381.142 189.348 381.449 189.114C381.755 188.875 381.988 188.544 382.147 188.119C382.307 187.695 382.386 187.201 382.386 186.636C382.386 186.072 382.307 185.581 382.147 185.165C381.992 184.748 381.761 184.424 381.454 184.193C381.151 183.962 380.778 183.847 380.335 183.847C379.877 183.847 379.494 183.966 379.187 184.205C378.88 184.443 378.649 184.773 378.494 185.193C378.339 185.614 378.261 186.095 378.261 186.636C378.261 187.182 378.339 187.669 378.494 188.097C378.653 188.521 378.886 188.856 379.193 189.102C379.504 189.345 379.884 189.466 380.335 189.466ZM389.912 191.176C389.359 191.176 388.861 191.078 388.418 190.881C387.978 190.68 387.63 190.384 387.372 189.994C387.118 189.604 386.991 189.123 386.991 188.551C386.991 188.059 387.082 187.652 387.264 187.33C387.446 187.008 387.694 186.75 388.009 186.557C388.323 186.364 388.677 186.218 389.071 186.119C389.469 186.017 389.88 185.943 390.304 185.898C390.815 185.845 391.23 185.797 391.548 185.756C391.866 185.71 392.098 185.642 392.241 185.551C392.389 185.456 392.463 185.311 392.463 185.114V185.08C392.463 184.652 392.336 184.32 392.082 184.085C391.829 183.85 391.463 183.733 390.986 183.733C390.482 183.733 390.082 183.843 389.787 184.062C389.495 184.282 389.298 184.542 389.196 184.841L387.276 184.568C387.427 184.038 387.677 183.595 388.026 183.239C388.374 182.879 388.8 182.61 389.304 182.432C389.808 182.25 390.365 182.159 390.974 182.159C391.395 182.159 391.813 182.208 392.23 182.307C392.647 182.405 393.027 182.568 393.372 182.795C393.717 183.019 393.993 183.324 394.202 183.71C394.414 184.097 394.52 184.58 394.52 185.159V191H392.543V189.801H392.474C392.349 190.044 392.173 190.271 391.946 190.483C391.723 190.691 391.44 190.86 391.099 190.989C390.762 191.114 390.366 191.176 389.912 191.176ZM390.446 189.665C390.859 189.665 391.217 189.583 391.52 189.42C391.823 189.254 392.056 189.034 392.219 188.761C392.385 188.489 392.469 188.191 392.469 187.869V186.841C392.404 186.894 392.295 186.943 392.139 186.989C391.988 187.034 391.817 187.074 391.628 187.108C391.438 187.142 391.251 187.172 391.065 187.199C390.88 187.225 390.719 187.248 390.582 187.267C390.276 187.309 390.001 187.377 389.759 187.472C389.516 187.566 389.325 187.699 389.185 187.869C389.045 188.036 388.974 188.252 388.974 188.517C388.974 188.896 389.113 189.182 389.389 189.375C389.666 189.568 390.018 189.665 390.446 189.665ZM397.479 191V179.364H399.536V183.716H399.621C399.727 183.504 399.877 183.278 400.07 183.04C400.263 182.797 400.524 182.591 400.854 182.42C401.184 182.246 401.604 182.159 402.115 182.159C402.79 182.159 403.398 182.331 403.939 182.676C404.485 183.017 404.916 183.523 405.235 184.193C405.557 184.86 405.718 185.678 405.718 186.648C405.718 187.606 405.56 188.42 405.246 189.091C404.932 189.761 404.504 190.273 403.962 190.625C403.42 190.977 402.807 191.153 402.121 191.153C401.621 191.153 401.206 191.07 400.877 190.903C400.547 190.737 400.282 190.536 400.081 190.301C399.884 190.062 399.731 189.837 399.621 189.625H399.502V191H397.479ZM399.496 186.636C399.496 187.201 399.576 187.695 399.735 188.119C399.898 188.544 400.13 188.875 400.434 189.114C400.74 189.348 401.112 189.466 401.547 189.466C402.002 189.466 402.382 189.345 402.689 189.102C402.996 188.856 403.227 188.521 403.382 188.097C403.541 187.669 403.621 187.182 403.621 186.636C403.621 186.095 403.543 185.614 403.388 185.193C403.233 184.773 403.002 184.443 402.695 184.205C402.388 183.966 402.005 183.847 401.547 183.847C401.108 183.847 400.735 183.962 400.428 184.193C400.121 184.424 399.888 184.748 399.729 185.165C399.574 185.581 399.496 186.072 399.496 186.636ZM410.323 179.364V191H408.266V179.364H410.323ZM417.102 191.17C416.227 191.17 415.471 190.989 414.835 190.625C414.202 190.258 413.715 189.739 413.374 189.068C413.034 188.394 412.863 187.6 412.863 186.688C412.863 185.79 413.034 185.002 413.374 184.324C413.719 183.642 414.2 183.112 414.818 182.733C415.435 182.35 416.16 182.159 416.994 182.159C417.532 182.159 418.039 182.246 418.516 182.42C418.998 182.591 419.422 182.856 419.789 183.216C420.16 183.576 420.452 184.034 420.664 184.591C420.876 185.144 420.982 185.803 420.982 186.568V187.199H413.829V185.812H419.011C419.007 185.419 418.922 185.068 418.755 184.761C418.588 184.451 418.355 184.206 418.056 184.028C417.761 183.85 417.416 183.761 417.022 183.761C416.602 183.761 416.232 183.864 415.914 184.068C415.596 184.269 415.348 184.534 415.17 184.864C414.996 185.189 414.907 185.547 414.903 185.938V187.148C414.903 187.655 414.996 188.091 415.181 188.455C415.367 188.814 415.626 189.091 415.96 189.284C416.293 189.473 416.683 189.568 417.13 189.568C417.429 189.568 417.7 189.527 417.943 189.443C418.185 189.356 418.395 189.229 418.573 189.062C418.751 188.896 418.886 188.689 418.977 188.443L420.897 188.659C420.776 189.167 420.545 189.61 420.204 189.989C419.867 190.364 419.435 190.655 418.909 190.864C418.382 191.068 417.78 191.17 417.102 191.17ZM425.937 189.409L425.863 190.034C425.81 190.511 425.716 190.996 425.579 191.489C425.447 191.985 425.307 192.441 425.159 192.858C425.011 193.275 424.892 193.602 424.801 193.841H423.414C423.468 193.61 423.539 193.295 423.63 192.898C423.725 192.5 423.816 192.053 423.903 191.557C423.99 191.061 424.049 190.557 424.079 190.045L424.119 189.409H425.937ZM443.502 183.29H441.377C441.316 182.941 441.204 182.633 441.041 182.364C440.879 182.091 440.676 181.86 440.434 181.67C440.191 181.481 439.915 181.339 439.604 181.244C439.297 181.146 438.966 181.097 438.61 181.097C437.977 181.097 437.416 181.256 436.928 181.574C436.439 181.888 436.057 182.35 435.78 182.96C435.504 183.566 435.365 184.307 435.365 185.182C435.365 186.072 435.504 186.822 435.78 187.432C436.06 188.038 436.443 188.496 436.928 188.807C437.416 189.114 437.975 189.267 438.604 189.267C438.952 189.267 439.278 189.222 439.581 189.131C439.888 189.036 440.163 188.898 440.405 188.716C440.651 188.534 440.858 188.311 441.024 188.045C441.195 187.78 441.312 187.477 441.377 187.136L443.502 187.148C443.422 187.701 443.25 188.22 442.985 188.705C442.723 189.189 442.38 189.617 441.956 189.989C441.532 190.356 441.036 190.644 440.468 190.852C439.899 191.057 439.269 191.159 438.576 191.159C437.553 191.159 436.64 190.922 435.837 190.449C435.034 189.975 434.401 189.292 433.939 188.398C433.477 187.504 433.246 186.432 433.246 185.182C433.246 183.928 433.479 182.856 433.945 181.966C434.411 181.072 435.045 180.388 435.848 179.915C436.651 179.441 437.56 179.205 438.576 179.205C439.223 179.205 439.826 179.295 440.382 179.477C440.939 179.659 441.435 179.926 441.871 180.278C442.307 180.627 442.665 181.055 442.945 181.562C443.229 182.066 443.415 182.642 443.502 183.29ZM451.704 187.33V182.273H453.761V191H451.766V189.449H451.675C451.478 189.937 451.154 190.337 450.704 190.648C450.257 190.958 449.706 191.114 449.05 191.114C448.478 191.114 447.973 190.987 447.533 190.733C447.098 190.475 446.757 190.102 446.511 189.614C446.264 189.121 446.141 188.527 446.141 187.83V182.273H448.198V187.511C448.198 188.064 448.35 188.504 448.653 188.83C448.956 189.155 449.353 189.318 449.846 189.318C450.149 189.318 450.442 189.244 450.726 189.097C451.011 188.949 451.243 188.729 451.425 188.438C451.611 188.142 451.704 187.773 451.704 187.33ZM461.034 182.273V183.864H456.016V182.273H461.034ZM457.255 180.182H459.312V188.375C459.312 188.652 459.354 188.864 459.437 189.011C459.524 189.155 459.638 189.254 459.778 189.307C459.918 189.36 460.073 189.386 460.244 189.386C460.373 189.386 460.49 189.377 460.596 189.358C460.706 189.339 460.789 189.322 460.846 189.307L461.193 190.915C461.083 190.953 460.926 190.994 460.721 191.04C460.52 191.085 460.274 191.112 459.982 191.119C459.467 191.134 459.003 191.057 458.59 190.886C458.177 190.712 457.85 190.443 457.607 190.08C457.369 189.716 457.251 189.261 457.255 188.716V180.182ZM467.912 182.273V183.864H462.895V182.273H467.912ZM464.133 180.182H466.19V188.375C466.19 188.652 466.232 188.864 466.315 189.011C466.402 189.155 466.516 189.254 466.656 189.307C466.796 189.36 466.951 189.386 467.122 189.386C467.251 189.386 467.368 189.377 467.474 189.358C467.584 189.339 467.667 189.322 467.724 189.307L468.071 190.915C467.961 190.953 467.804 190.994 467.599 191.04C467.398 191.085 467.152 191.112 466.861 191.119C466.345 191.134 465.881 191.057 465.468 190.886C465.056 190.712 464.728 190.443 464.486 190.08C464.247 189.716 464.129 189.261 464.133 188.716V180.182ZM470.432 191V182.273H472.489V191H470.432ZM471.466 181.034C471.14 181.034 470.86 180.926 470.625 180.71C470.39 180.491 470.273 180.227 470.273 179.92C470.273 179.61 470.39 179.347 470.625 179.131C470.86 178.911 471.14 178.801 471.466 178.801C471.795 178.801 472.076 178.911 472.307 179.131C472.542 179.347 472.659 179.61 472.659 179.92C472.659 180.227 472.542 180.491 472.307 180.71C472.076 180.926 471.795 181.034 471.466 181.034ZM477.461 185.886V191H475.404V182.273H477.37V183.756H477.472C477.673 183.267 477.993 182.879 478.432 182.591C478.875 182.303 479.423 182.159 480.074 182.159C480.676 182.159 481.201 182.288 481.648 182.545C482.099 182.803 482.447 183.176 482.693 183.665C482.943 184.153 483.067 184.746 483.063 185.443V191H481.006V185.761C481.006 185.178 480.854 184.722 480.551 184.392C480.252 184.062 479.837 183.898 479.307 183.898C478.947 183.898 478.627 183.977 478.347 184.136C478.07 184.292 477.853 184.517 477.693 184.812C477.538 185.108 477.461 185.466 477.461 185.886ZM489.749 194.455C489.011 194.455 488.376 194.354 487.846 194.153C487.315 193.956 486.889 193.691 486.567 193.358C486.245 193.025 486.022 192.655 485.897 192.25L487.749 191.801C487.832 191.972 487.954 192.14 488.113 192.307C488.272 192.477 488.486 192.617 488.755 192.727C489.028 192.841 489.37 192.898 489.783 192.898C490.367 192.898 490.85 192.756 491.232 192.472C491.615 192.191 491.806 191.729 491.806 191.085V189.432H491.704C491.598 189.644 491.442 189.862 491.238 190.085C491.037 190.309 490.77 190.496 490.437 190.648C490.107 190.799 489.692 190.875 489.192 190.875C488.522 190.875 487.914 190.718 487.368 190.403C486.827 190.085 486.395 189.612 486.073 188.983C485.755 188.35 485.596 187.559 485.596 186.608C485.596 185.65 485.755 184.841 486.073 184.182C486.395 183.519 486.829 183.017 487.374 182.676C487.92 182.331 488.528 182.159 489.198 182.159C489.709 182.159 490.13 182.246 490.459 182.42C490.793 182.591 491.058 182.797 491.255 183.04C491.452 183.278 491.601 183.504 491.704 183.716H491.817V182.273H493.846V191.142C493.846 191.888 493.668 192.506 493.312 192.994C492.956 193.483 492.469 193.848 491.851 194.091C491.234 194.333 490.533 194.455 489.749 194.455ZM489.766 189.261C490.202 189.261 490.573 189.155 490.88 188.943C491.187 188.731 491.42 188.426 491.579 188.028C491.738 187.631 491.817 187.153 491.817 186.597C491.817 186.047 491.738 185.566 491.579 185.153C491.423 184.741 491.192 184.42 490.886 184.193C490.582 183.962 490.209 183.847 489.766 183.847C489.308 183.847 488.925 183.966 488.618 184.205C488.312 184.443 488.081 184.771 487.925 185.188C487.77 185.6 487.692 186.07 487.692 186.597C487.692 187.131 487.77 187.598 487.925 188C488.084 188.398 488.317 188.708 488.624 188.932C488.935 189.152 489.315 189.261 489.766 189.261ZM502.043 185.307V187H496.805V185.307H502.043ZM505.098 191V179.364H512.666V181.131H507.206V184.29H512.274V186.057H507.206V189.233H512.711V191H505.098ZM518.764 191.153C518.079 191.153 517.465 190.977 516.923 190.625C516.382 190.273 515.954 189.761 515.639 189.091C515.325 188.42 515.168 187.606 515.168 186.648C515.168 185.678 515.327 184.86 515.645 184.193C515.967 183.523 516.401 183.017 516.946 182.676C517.491 182.331 518.099 182.159 518.77 182.159C519.281 182.159 519.702 182.246 520.031 182.42C520.361 182.591 520.622 182.797 520.815 183.04C521.009 183.278 521.158 183.504 521.264 183.716H521.349V179.364H523.412V191H521.389V189.625H521.264C521.158 189.837 521.005 190.062 520.804 190.301C520.603 190.536 520.338 190.737 520.009 190.903C519.679 191.07 519.264 191.153 518.764 191.153ZM519.338 189.466C519.774 189.466 520.145 189.348 520.452 189.114C520.759 188.875 520.991 188.544 521.151 188.119C521.31 187.695 521.389 187.201 521.389 186.636C521.389 186.072 521.31 185.581 521.151 185.165C520.995 184.748 520.764 184.424 520.457 184.193C520.154 183.962 519.781 183.847 519.338 183.847C518.88 183.847 518.497 183.966 518.19 184.205C517.884 184.443 517.652 184.773 517.497 185.193C517.342 185.614 517.264 186.095 517.264 186.636C517.264 187.182 517.342 187.669 517.497 188.097C517.656 188.521 517.889 188.856 518.196 189.102C518.507 189.345 518.887 189.466 519.338 189.466ZM530.199 194.455C529.46 194.455 528.826 194.354 528.296 194.153C527.765 193.956 527.339 193.691 527.017 193.358C526.695 193.025 526.472 192.655 526.347 192.25L528.199 191.801C528.282 191.972 528.404 192.14 528.563 192.307C528.722 192.477 528.936 192.617 529.205 192.727C529.478 192.841 529.82 192.898 530.233 192.898C530.817 192.898 531.3 192.756 531.682 192.472C532.065 192.191 532.256 191.729 532.256 191.085V189.432H532.154C532.048 189.644 531.892 189.862 531.688 190.085C531.487 190.309 531.22 190.496 530.887 190.648C530.557 190.799 530.142 190.875 529.642 190.875C528.972 190.875 528.364 190.718 527.818 190.403C527.277 190.085 526.845 189.612 526.523 188.983C526.205 188.35 526.046 187.559 526.046 186.608C526.046 185.65 526.205 184.841 526.523 184.182C526.845 183.519 527.279 183.017 527.824 182.676C528.37 182.331 528.978 182.159 529.648 182.159C530.159 182.159 530.58 182.246 530.909 182.42C531.243 182.591 531.508 182.797 531.705 183.04C531.902 183.278 532.051 183.504 532.154 183.716H532.267V182.273H534.296V191.142C534.296 191.888 534.118 192.506 533.762 192.994C533.406 193.483 532.919 193.848 532.301 194.091C531.684 194.333 530.983 194.455 530.199 194.455ZM530.216 189.261C530.652 189.261 531.023 189.155 531.33 188.943C531.637 188.731 531.87 188.426 532.029 188.028C532.188 187.631 532.267 187.153 532.267 186.597C532.267 186.047 532.188 185.566 532.029 185.153C531.873 184.741 531.642 184.42 531.335 184.193C531.032 183.962 530.659 183.847 530.216 183.847C529.758 183.847 529.375 183.966 529.068 184.205C528.762 184.443 528.531 184.771 528.375 185.188C528.22 185.6 528.142 186.07 528.142 186.597C528.142 187.131 528.22 187.598 528.375 188C528.534 188.398 528.767 188.708 529.074 188.932C529.385 189.152 529.765 189.261 530.216 189.261ZM541.067 191.17C540.192 191.17 539.437 190.989 538.8 190.625C538.168 190.258 537.681 189.739 537.34 189.068C536.999 188.394 536.829 187.6 536.829 186.688C536.829 185.79 536.999 185.002 537.34 184.324C537.685 183.642 538.166 183.112 538.783 182.733C539.401 182.35 540.126 182.159 540.959 182.159C541.497 182.159 542.005 182.246 542.482 182.42C542.963 182.591 543.387 182.856 543.755 183.216C544.126 183.576 544.418 184.034 544.63 184.591C544.842 185.144 544.948 185.803 544.948 186.568V187.199H537.795V185.812H542.976C542.973 185.419 542.887 185.068 542.721 184.761C542.554 184.451 542.321 184.206 542.022 184.028C541.726 183.85 541.382 183.761 540.988 183.761C540.567 183.761 540.198 183.864 539.88 184.068C539.562 184.269 539.314 184.534 539.136 184.864C538.961 185.189 538.872 185.547 538.868 185.938V187.148C538.868 187.655 538.961 188.091 539.147 188.455C539.332 188.814 539.592 189.091 539.925 189.284C540.259 189.473 540.649 189.568 541.096 189.568C541.395 189.568 541.666 189.527 541.908 189.443C542.151 189.356 542.361 189.229 542.539 189.062C542.717 188.896 542.851 188.689 542.942 188.443L544.863 188.659C544.742 189.167 544.511 189.61 544.17 189.989C543.832 190.364 543.401 190.655 542.874 190.864C542.348 191.068 541.745 191.17 541.067 191.17ZM554.797 191L551.513 179.364H553.78L555.876 187.915H555.984L558.223 179.364H560.285L562.53 187.92H562.632L564.728 179.364H566.995L563.711 191H561.632L559.302 182.835H559.211L556.876 191H554.797ZM572.139 191.17C571.264 191.17 570.509 190.989 569.872 190.625C569.24 190.258 568.753 189.739 568.412 189.068C568.071 188.394 567.901 187.6 567.901 186.688C567.901 185.79 568.071 185.002 568.412 184.324C568.757 183.642 569.238 183.112 569.855 182.733C570.473 182.35 571.198 182.159 572.031 182.159C572.569 182.159 573.077 182.246 573.554 182.42C574.035 182.591 574.459 182.856 574.827 183.216C575.198 183.576 575.49 184.034 575.702 184.591C575.914 185.144 576.02 185.803 576.02 186.568V187.199H568.866V185.812H574.048C574.045 185.419 573.959 185.068 573.793 184.761C573.626 184.451 573.393 184.206 573.094 184.028C572.798 183.85 572.454 183.761 572.06 183.761C571.639 183.761 571.27 183.864 570.952 184.068C570.634 184.269 570.385 184.534 570.207 184.864C570.033 185.189 569.944 185.547 569.94 185.938V187.148C569.94 187.655 570.033 188.091 570.219 188.455C570.404 188.814 570.664 189.091 570.997 189.284C571.33 189.473 571.721 189.568 572.168 189.568C572.467 189.568 572.738 189.527 572.98 189.443C573.223 189.356 573.433 189.229 573.611 189.062C573.789 188.896 573.923 188.689 574.014 188.443L575.935 188.659C575.813 189.167 575.582 189.61 575.241 189.989C574.904 190.364 574.473 190.655 573.946 190.864C573.42 191.068 572.817 191.17 572.139 191.17ZM578.651 191V179.364H580.708V183.716H580.793C580.899 183.504 581.049 183.278 581.242 183.04C581.435 182.797 581.696 182.591 582.026 182.42C582.355 182.246 582.776 182.159 583.287 182.159C583.961 182.159 584.569 182.331 585.111 182.676C585.657 183.017 586.088 183.523 586.407 184.193C586.728 184.86 586.889 185.678 586.889 186.648C586.889 187.606 586.732 188.42 586.418 189.091C586.103 189.761 585.675 190.273 585.134 190.625C584.592 190.977 583.978 191.153 583.293 191.153C582.793 191.153 582.378 191.07 582.049 190.903C581.719 190.737 581.454 190.536 581.253 190.301C581.056 190.062 580.903 189.837 580.793 189.625H580.674V191H578.651ZM580.668 186.636C580.668 187.201 580.747 187.695 580.907 188.119C581.069 188.544 581.302 188.875 581.605 189.114C581.912 189.348 582.283 189.466 582.719 189.466C583.174 189.466 583.554 189.345 583.861 189.102C584.168 188.856 584.399 188.521 584.554 188.097C584.713 187.669 584.793 187.182 584.793 186.636C584.793 186.095 584.715 185.614 584.56 185.193C584.405 184.773 584.174 184.443 583.867 184.205C583.56 183.966 583.177 183.847 582.719 183.847C582.28 183.847 581.907 183.962 581.6 184.193C581.293 184.424 581.06 184.748 580.901 185.165C580.746 185.581 580.668 186.072 580.668 186.636ZM600.622 182.562C600.569 182.066 600.345 181.68 599.951 181.403C599.561 181.127 599.053 180.989 598.428 180.989C597.989 180.989 597.612 181.055 597.298 181.188C596.983 181.32 596.743 181.5 596.576 181.727C596.409 181.955 596.324 182.214 596.32 182.506C596.32 182.748 596.375 182.958 596.485 183.136C596.599 183.314 596.752 183.466 596.945 183.591C597.139 183.712 597.353 183.814 597.587 183.898C597.822 183.981 598.059 184.051 598.298 184.108L599.389 184.381C599.828 184.483 600.25 184.621 600.656 184.795C601.065 184.97 601.43 185.189 601.752 185.455C602.078 185.72 602.336 186.04 602.525 186.415C602.714 186.79 602.809 187.229 602.809 187.733C602.809 188.415 602.635 189.015 602.286 189.534C601.938 190.049 601.434 190.453 600.775 190.744C600.12 191.032 599.326 191.176 598.394 191.176C597.489 191.176 596.703 191.036 596.036 190.756C595.373 190.475 594.855 190.066 594.48 189.528C594.108 188.991 593.908 188.335 593.877 187.562H595.951C595.981 187.968 596.106 188.305 596.326 188.574C596.546 188.843 596.832 189.044 597.184 189.176C597.54 189.309 597.938 189.375 598.377 189.375C598.836 189.375 599.237 189.307 599.582 189.17C599.93 189.03 600.203 188.837 600.4 188.591C600.597 188.341 600.697 188.049 600.701 187.716C600.697 187.413 600.608 187.163 600.434 186.966C600.26 186.765 600.016 186.598 599.701 186.466C599.391 186.33 599.027 186.208 598.61 186.102L597.286 185.761C596.328 185.515 595.57 185.142 595.014 184.642C594.461 184.138 594.184 183.47 594.184 182.636C594.184 181.951 594.37 181.35 594.741 180.835C595.116 180.32 595.625 179.92 596.269 179.636C596.913 179.348 597.642 179.205 598.457 179.205C599.283 179.205 600.006 179.348 600.627 179.636C601.252 179.92 601.743 180.316 602.099 180.824C602.455 181.328 602.639 181.907 602.65 182.562H600.622ZM609.261 191.17C608.386 191.17 607.63 190.989 606.994 190.625C606.361 190.258 605.875 189.739 605.534 189.068C605.193 188.394 605.022 187.6 605.022 186.688C605.022 185.79 605.193 185.002 605.534 184.324C605.879 183.642 606.36 183.112 606.977 182.733C607.594 182.35 608.32 182.159 609.153 182.159C609.691 182.159 610.199 182.246 610.676 182.42C611.157 182.591 611.581 182.856 611.949 183.216C612.32 183.576 612.611 184.034 612.824 184.591C613.036 185.144 613.142 185.803 613.142 186.568V187.199H605.988V185.812H611.17C611.166 185.419 611.081 185.068 610.915 184.761C610.748 184.451 610.515 184.206 610.216 184.028C609.92 183.85 609.575 183.761 609.182 183.761C608.761 183.761 608.392 183.864 608.074 184.068C607.755 184.269 607.507 184.534 607.329 184.864C607.155 185.189 607.066 185.547 607.062 185.938V187.148C607.062 187.655 607.155 188.091 607.341 188.455C607.526 188.814 607.786 189.091 608.119 189.284C608.452 189.473 608.843 189.568 609.29 189.568C609.589 189.568 609.86 189.527 610.102 189.443C610.344 189.356 610.555 189.229 610.733 189.062C610.911 188.896 611.045 188.689 611.136 188.443L613.057 188.659C612.935 189.167 612.704 189.61 612.363 189.989C612.026 190.364 611.594 190.655 611.068 190.864C610.541 191.068 609.939 191.17 609.261 191.17ZM615.682 191V182.273H617.676V183.727H617.767C617.926 183.223 618.199 182.835 618.585 182.562C618.975 182.286 619.42 182.148 619.92 182.148C620.034 182.148 620.161 182.153 620.301 182.165C620.445 182.172 620.564 182.186 620.659 182.205V184.097C620.572 184.066 620.434 184.04 620.244 184.017C620.059 183.991 619.879 183.977 619.705 183.977C619.33 183.977 618.992 184.059 618.693 184.222C618.398 184.381 618.165 184.602 617.994 184.886C617.824 185.17 617.739 185.498 617.739 185.869V191H615.682ZM630.887 182.273L627.779 191H625.506L622.398 182.273H624.591L626.597 188.756H626.688L628.699 182.273H630.887ZM633.11 191V182.273H635.167V191H633.11ZM634.144 181.034C633.818 181.034 633.538 180.926 633.303 180.71C633.068 180.491 632.951 180.227 632.951 179.92C632.951 179.61 633.068 179.347 633.303 179.131C633.538 178.911 633.818 178.801 634.144 178.801C634.474 178.801 634.754 178.911 634.985 179.131C635.22 179.347 635.337 179.61 635.337 179.92C635.337 180.227 635.22 180.491 634.985 180.71C634.754 180.926 634.474 181.034 634.144 181.034ZM641.889 191.17C641.017 191.17 640.269 190.979 639.644 190.597C639.023 190.214 638.544 189.686 638.207 189.011C637.873 188.333 637.707 187.553 637.707 186.67C637.707 185.784 637.877 185.002 638.218 184.324C638.559 183.642 639.04 183.112 639.661 182.733C640.286 182.35 641.025 182.159 641.877 182.159C642.586 182.159 643.212 182.29 643.758 182.551C644.307 182.809 644.745 183.174 645.07 183.648C645.396 184.117 645.582 184.667 645.627 185.295H643.661C643.582 184.875 643.392 184.525 643.093 184.244C642.798 183.96 642.402 183.818 641.906 183.818C641.485 183.818 641.116 183.932 640.798 184.159C640.48 184.383 640.231 184.705 640.053 185.125C639.879 185.545 639.792 186.049 639.792 186.636C639.792 187.231 639.879 187.742 640.053 188.17C640.228 188.595 640.472 188.922 640.786 189.153C641.105 189.381 641.478 189.494 641.906 189.494C642.209 189.494 642.48 189.437 642.718 189.324C642.961 189.206 643.163 189.038 643.326 188.818C643.489 188.598 643.601 188.331 643.661 188.017H645.627C645.578 188.634 645.396 189.182 645.082 189.659C644.767 190.133 644.339 190.504 643.798 190.773C643.256 191.038 642.62 191.17 641.889 191.17ZM651.98 191.17C651.105 191.17 650.349 190.989 649.713 190.625C649.08 190.258 648.593 189.739 648.253 189.068C647.912 188.394 647.741 187.6 647.741 186.688C647.741 185.79 647.912 185.002 648.253 184.324C648.597 183.642 649.078 183.112 649.696 182.733C650.313 182.35 651.039 182.159 651.872 182.159C652.41 182.159 652.917 182.246 653.395 182.42C653.876 182.591 654.3 182.856 654.667 183.216C655.039 183.576 655.33 184.034 655.542 184.591C655.754 185.144 655.861 185.803 655.861 186.568V187.199H648.707V185.812H653.889C653.885 185.419 653.8 185.068 653.633 184.761C653.467 184.451 653.234 184.206 652.934 184.028C652.639 183.85 652.294 183.761 651.9 183.761C651.48 183.761 651.111 183.864 650.792 184.068C650.474 184.269 650.226 184.534 650.048 184.864C649.874 185.189 649.785 185.547 649.781 185.938V187.148C649.781 187.655 649.874 188.091 650.059 188.455C650.245 188.814 650.504 189.091 650.838 189.284C651.171 189.473 651.561 189.568 652.008 189.568C652.307 189.568 652.578 189.527 652.821 189.443C653.063 189.356 653.273 189.229 653.451 189.062C653.629 188.896 653.764 188.689 653.855 188.443L655.775 188.659C655.654 189.167 655.423 189.61 655.082 189.989C654.745 190.364 654.313 190.655 653.787 190.864C653.26 191.068 652.658 191.17 651.98 191.17ZM665.298 184.58L663.423 184.784C663.37 184.595 663.277 184.417 663.145 184.25C663.016 184.083 662.842 183.949 662.622 183.847C662.402 183.744 662.134 183.693 661.815 183.693C661.387 183.693 661.027 183.786 660.736 183.972C660.448 184.157 660.306 184.398 660.31 184.693C660.306 184.947 660.399 185.153 660.588 185.312C660.781 185.472 661.099 185.602 661.543 185.705L663.031 186.023C663.857 186.201 664.471 186.483 664.872 186.869C665.277 187.256 665.482 187.761 665.486 188.386C665.482 188.936 665.321 189.42 665.003 189.841C664.688 190.258 664.251 190.583 663.69 190.818C663.13 191.053 662.486 191.17 661.759 191.17C660.69 191.17 659.83 190.947 659.179 190.5C658.527 190.049 658.139 189.422 658.014 188.619L660.02 188.426C660.111 188.82 660.304 189.117 660.599 189.318C660.895 189.519 661.279 189.619 661.753 189.619C662.241 189.619 662.634 189.519 662.929 189.318C663.228 189.117 663.378 188.869 663.378 188.574C663.378 188.324 663.281 188.117 663.088 187.955C662.899 187.792 662.603 187.667 662.202 187.58L660.713 187.267C659.876 187.093 659.257 186.799 658.855 186.386C658.454 185.97 658.255 185.443 658.259 184.807C658.255 184.269 658.401 183.803 658.696 183.409C658.995 183.011 659.41 182.705 659.94 182.489C660.474 182.269 661.09 182.159 661.787 182.159C662.81 182.159 663.615 182.377 664.202 182.812C664.793 183.248 665.158 183.837 665.298 184.58Z" fill="url(#paint1_linear_2_23)"/>
<defs>
<linearGradient id="paint0_linear_2_23" x1="229" y1="119" x2="9" y2="119" gradientUnits="userSpaceOnUse">
<stop stop-color="#34A853"/>
<stop offset="1" stop-color="#4285F4"/>
</linearGradient>
<linearGradient id="paint1_linear_2_23" x1="263" y1="185.5" x2="670" y2="185.5" gradientUnits="userSpaceOnUse">
<stop stop-color="#4285F4"/>
<stop offset="1" stop-color="#34A853"/>
</linearGradient>
</defs>
</svg>
