<svg width="407" height="151" viewBox="0 0 407 151" fill="none" xmlns="http://www.w3.org/2000/svg">
<path d="M33.4545 94.4546C26.6364 94.4546 20.7273 92.9546 15.7273 89.9546C10.7273 86.9546 6.84849 82.7576 4.09091 77.3636C1.36364 71.9697 0 65.6667 0 58.4545C0 51.2424 1.36364 44.9242 4.09091 39.5C6.84849 34.0758 10.7273 29.8636 15.7273 26.8636C20.7273 23.8636 26.6364 22.3636 33.4545 22.3636C40.2727 22.3636 46.1818 23.8636 51.1818 26.8636C56.1818 29.8636 60.0455 34.0758 62.7727 39.5C65.5303 44.9242 66.9091 51.2424 66.9091 58.4545C66.9091 65.6667 65.5303 71.9697 62.7727 77.3636C60.0455 82.7576 56.1818 86.9546 51.1818 89.9546C46.1818 92.9546 40.2727 94.4546 33.4545 94.4546ZM33.5455 81.2727C37.2424 81.2727 40.3333 80.2576 42.8182 78.2273C45.303 76.1667 47.1515 73.4091 48.3636 69.9545C49.6061 66.5 50.2273 62.6515 50.2273 58.4091C50.2273 54.1364 49.6061 50.2727 48.3636 46.8182C47.1515 43.3333 45.303 40.5606 42.8182 38.5C40.3333 36.4394 37.2424 35.4091 33.5455 35.4091C29.7576 35.4091 26.6061 36.4394 24.0909 38.5C21.6061 40.5606 19.7424 43.3333 18.5 46.8182C17.2879 50.2727 16.6818 54.1364 16.6818 58.4091C16.6818 62.6515 17.2879 66.5 18.5 69.9545C19.7424 73.4091 21.6061 76.1667 24.0909 78.2273C26.6061 80.2576 29.7576 81.2727 33.5455 81.2727Z" fill="#4285F4"/>
<path d="M80.875 119.273V23.2727H97.0568V34.8182H98.0114C98.8599 33.1212 100.057 31.3182 101.602 29.4091C103.148 27.4697 105.239 25.8182 107.875 24.4545C110.511 23.0606 113.875 22.3636 117.966 22.3636C123.36 22.3636 128.223 23.7424 132.557 26.5C136.92 29.2273 140.375 33.2727 142.92 38.6364C145.496 43.9697 146.784 50.5152 146.784 58.2727C146.784 65.9394 145.527 72.4545 143.011 77.8182C140.496 83.1818 137.072 87.2727 132.739 90.0909C128.405 92.9091 123.496 94.3182 118.011 94.3182C114.011 94.3182 110.693 93.6515 108.057 92.3182C105.42 90.9849 103.299 89.3788 101.693 87.5C100.117 85.5909 98.8902 83.7879 98.0114 82.0909H97.3295V119.273H80.875ZM97.0114 58.1818C97.0114 62.697 97.6477 66.6515 98.9205 70.0455C100.223 73.4394 102.087 76.0909 104.511 78C106.966 79.8788 109.936 80.8182 113.42 80.8182C117.057 80.8182 120.102 79.8485 122.557 77.9091C125.011 75.9394 126.86 73.2576 128.102 69.8636C129.375 66.4394 130.011 62.5455 130.011 58.1818C130.011 53.8485 129.39 50 128.148 46.6364C126.905 43.2727 125.057 40.6364 122.602 38.7273C120.148 36.8182 117.087 35.8636 113.42 35.8636C109.905 35.8636 106.92 36.7879 104.466 38.6364C102.011 40.4848 100.148 43.0758 98.875 46.4091C97.6326 49.7424 97.0114 53.6667 97.0114 58.1818Z" fill="#EA4335"/>
<path d="M173.284 93.0909L153.557 23.2727H170.33L182.602 72.3636H183.239L195.784 23.2727H212.375L224.92 72.0909H225.602L237.693 23.2727H254.511L234.739 93.0909H217.602L204.511 45.9091H203.557L190.466 93.0909H173.284Z" fill="#FBBE0D"/>
<path d="M294.909 94.4546C287.909 94.4546 281.864 93 276.773 90.0909C271.712 87.1515 267.818 83 265.091 77.6364C262.364 72.2424 261 65.8939 261 58.5909C261 51.4091 262.364 45.1061 265.091 39.6818C267.848 34.2273 271.697 29.9848 276.636 26.9545C281.576 23.8939 287.379 22.3636 294.045 22.3636C298.348 22.3636 302.409 23.0606 306.227 24.4545C310.076 25.8182 313.47 27.9394 316.409 30.8182C319.379 33.697 321.712 37.3636 323.409 41.8182C325.106 46.2424 325.955 51.5152 325.955 57.6364V62.6818H268.727V51.5909H310.182C310.152 48.4394 309.47 45.6364 308.136 43.1818C306.803 40.697 304.939 38.7424 302.545 37.3182C300.182 35.8939 297.424 35.1818 294.273 35.1818C290.909 35.1818 287.955 36 285.409 37.6364C282.864 39.2424 280.879 41.3636 279.455 44C278.061 46.6061 277.348 49.4697 277.318 52.5909V62.2727C277.318 66.3333 278.061 69.8182 279.545 72.7273C281.03 75.6061 283.106 77.8182 285.773 79.3636C288.439 80.8788 291.561 81.6364 295.136 81.6364C297.53 81.6364 299.697 81.303 301.636 80.6364C303.576 79.9394 305.258 78.9242 306.682 77.5909C308.106 76.2576 309.182 74.6061 309.909 72.6364L325.273 74.3636C324.303 78.4242 322.455 81.9697 319.727 85C317.03 88 313.576 90.3333 309.364 92C305.152 93.6364 300.333 94.4546 294.909 94.4546Z" fill="#4285F4"/>
<path d="M340.602 93.0909V0H357.057V34.8182H357.739C358.587 33.1212 359.784 31.3182 361.33 29.4091C362.875 27.4697 364.966 25.8182 367.602 24.4545C370.239 23.0606 373.602 22.3636 377.693 22.3636C383.087 22.3636 387.951 23.7424 392.284 26.5C396.648 29.2273 400.102 33.2727 402.648 38.6364C405.223 43.9697 406.511 50.5152 406.511 58.2727C406.511 65.9394 405.254 72.4545 402.739 77.8182C400.223 83.1818 396.799 87.2727 392.466 90.0909C388.133 92.9091 383.223 94.3182 377.739 94.3182C373.739 94.3182 370.42 93.6515 367.784 92.3182C365.148 90.9849 363.027 89.3788 361.42 87.5C359.845 85.5909 358.617 83.7879 357.739 82.0909H356.784V93.0909H340.602ZM356.739 58.1818C356.739 62.697 357.375 66.6515 358.648 70.0455C359.951 73.4394 361.814 76.0909 364.239 78C366.693 79.8788 369.663 80.8182 373.148 80.8182C376.784 80.8182 379.83 79.8485 382.284 77.9091C384.739 75.9394 386.587 73.2576 387.83 69.8636C389.102 66.4394 389.739 62.5455 389.739 58.1818C389.739 53.8485 389.117 50 387.875 46.6364C386.633 43.2727 384.784 40.6364 382.33 38.7273C379.875 36.8182 376.814 35.8636 373.148 35.8636C369.633 35.8636 366.648 36.7879 364.193 38.6364C361.739 40.4848 359.875 43.0758 358.602 46.4091C357.36 49.7424 356.739 53.6667 356.739 58.1818Z" fill="#34A853"/>
<path d="M3.25568 135.364V147H1.14773V135.364H3.25568ZM8.30426 141.886V147H6.24744V138.273H8.21335V139.756H8.31563C8.51638 139.267 8.83646 138.879 9.27585 138.591C9.71903 138.303 10.2664 138.159 10.9179 138.159C11.5202 138.159 12.0448 138.288 12.4918 138.545C12.9425 138.803 13.291 139.176 13.5372 139.665C13.7872 140.153 13.9103 140.746 13.9065 141.443V147H11.8497V141.761C11.8497 141.178 11.6982 140.722 11.3952 140.392C11.0959 140.062 10.6812 139.898 10.1509 139.898C9.791 139.898 9.47093 139.977 9.19063 140.136C8.91411 140.292 8.69631 140.517 8.53722 140.812C8.38191 141.108 8.30426 141.466 8.30426 141.886ZM23.6952 140.58L21.8202 140.784C21.7671 140.595 21.6743 140.417 21.5418 140.25C21.413 140.083 21.2387 139.949 21.019 139.847C20.7993 139.744 20.5304 139.693 20.2122 139.693C19.7842 139.693 19.4243 139.786 19.1327 139.972C18.8448 140.157 18.7027 140.398 18.7065 140.693C18.7027 140.947 18.7955 141.153 18.9849 141.312C19.1781 141.472 19.4963 141.602 19.9395 141.705L21.4281 142.023C22.2539 142.201 22.8675 142.483 23.269 142.869C23.6743 143.256 23.8789 143.761 23.8827 144.386C23.8789 144.936 23.7179 145.42 23.3997 145.841C23.0853 146.258 22.6478 146.583 22.0872 146.818C21.5266 147.053 20.8827 147.17 20.1554 147.17C19.0872 147.17 18.2274 146.947 17.5759 146.5C16.9243 146.049 16.5361 145.422 16.4111 144.619L18.4168 144.426C18.5077 144.82 18.7009 145.117 18.9963 145.318C19.2918 145.519 19.6762 145.619 20.1497 145.619C20.6384 145.619 21.0304 145.519 21.3259 145.318C21.6251 145.117 21.7747 144.869 21.7747 144.574C21.7747 144.324 21.6781 144.117 21.4849 143.955C21.2955 143.792 21.0001 143.667 20.5986 143.58L19.1099 143.267C18.2728 143.093 17.6535 142.799 17.252 142.386C16.8505 141.97 16.6516 141.443 16.6554 140.807C16.6516 140.269 16.7974 139.803 17.0929 139.409C17.3921 139.011 17.8069 138.705 18.3372 138.489C18.8713 138.269 19.4868 138.159 20.1838 138.159C21.2065 138.159 22.0115 138.377 22.5986 138.812C23.1895 139.248 23.555 139.837 23.6952 140.58ZM30.7366 138.273V139.864H25.7196V138.273H30.7366ZM26.9582 136.182H29.0151V144.375C29.0151 144.652 29.0567 144.864 29.1401 145.011C29.2272 145.155 29.3408 145.254 29.481 145.307C29.6211 145.36 29.7764 145.386 29.9469 145.386C30.0757 145.386 30.1931 145.377 30.2991 145.358C30.409 145.339 30.4923 145.322 30.5491 145.307L30.8957 146.915C30.7859 146.953 30.6287 146.994 30.4241 147.04C30.2234 147.085 29.9772 147.112 29.6855 147.119C29.1704 147.134 28.7063 147.057 28.2935 146.886C27.8806 146.712 27.5529 146.443 27.3105 146.08C27.0719 145.716 26.9545 145.261 26.9582 144.716V136.182ZM35.7682 147.176C35.2152 147.176 34.717 147.078 34.2739 146.881C33.8345 146.68 33.486 146.384 33.2284 145.994C32.9746 145.604 32.8477 145.123 32.8477 144.551C32.8477 144.059 32.9386 143.652 33.1205 143.33C33.3023 143.008 33.5504 142.75 33.8648 142.557C34.1792 142.364 34.5333 142.218 34.9273 142.119C35.325 142.017 35.736 141.943 36.1602 141.898C36.6716 141.845 37.0864 141.797 37.4045 141.756C37.7227 141.71 37.9538 141.642 38.0977 141.551C38.2455 141.456 38.3193 141.311 38.3193 141.114V141.08C38.3193 140.652 38.1924 140.32 37.9386 140.085C37.6848 139.85 37.3193 139.733 36.842 139.733C36.3383 139.733 35.9386 139.843 35.6432 140.062C35.3515 140.282 35.1545 140.542 35.0523 140.841L33.1318 140.568C33.2833 140.038 33.5333 139.595 33.8818 139.239C34.2303 138.879 34.6564 138.61 35.1602 138.432C35.664 138.25 36.2208 138.159 36.8307 138.159C37.2511 138.159 37.6697 138.208 38.0864 138.307C38.503 138.405 38.8837 138.568 39.2284 138.795C39.5731 139.019 39.8496 139.324 40.058 139.71C40.2701 140.097 40.3761 140.58 40.3761 141.159V147H38.3989V145.801H38.3307C38.2057 146.044 38.0295 146.271 37.8023 146.483C37.5788 146.691 37.2966 146.86 36.9557 146.989C36.6186 147.114 36.2227 147.176 35.7682 147.176ZM36.3023 145.665C36.7152 145.665 37.0731 145.583 37.3761 145.42C37.6792 145.254 37.9121 145.034 38.075 144.761C38.2417 144.489 38.325 144.191 38.325 143.869V142.841C38.2606 142.894 38.1508 142.943 37.9955 142.989C37.8439 143.034 37.6735 143.074 37.4841 143.108C37.2947 143.142 37.1072 143.172 36.9216 143.199C36.736 143.225 36.575 143.248 36.4386 143.267C36.1318 143.309 35.8572 143.377 35.6148 143.472C35.3723 143.566 35.1811 143.699 35.0409 143.869C34.9008 144.036 34.8307 144.252 34.8307 144.517C34.8307 144.896 34.9689 145.182 35.2455 145.375C35.522 145.568 35.8742 145.665 36.3023 145.665ZM45.3011 141.886V147H43.2443V138.273H45.2102V139.756H45.3125C45.5133 139.267 45.8333 138.879 46.2727 138.591C46.7159 138.303 47.2633 138.159 47.9148 138.159C48.517 138.159 49.0417 138.288 49.4886 138.545C49.9394 138.803 50.2879 139.176 50.5341 139.665C50.7841 140.153 50.9072 140.746 50.9034 141.443V147H48.8466V141.761C48.8466 141.178 48.6951 140.722 48.392 140.392C48.0928 140.062 47.678 139.898 47.1477 139.898C46.7879 139.898 46.4678 139.977 46.1875 140.136C45.911 140.292 45.6932 140.517 45.5341 140.812C45.3788 141.108 45.3011 141.466 45.3011 141.886ZM58.1523 138.273V139.864H53.1352V138.273H58.1523ZM54.3739 136.182H56.4307V144.375C56.4307 144.652 56.4723 144.864 56.5557 145.011C56.6428 145.155 56.7564 145.254 56.8966 145.307C57.0367 145.36 57.192 145.386 57.3625 145.386C57.4913 145.386 57.6087 145.377 57.7148 145.358C57.8246 145.339 57.908 145.322 57.9648 145.307L58.3114 146.915C58.2015 146.953 58.0443 146.994 57.8398 147.04C57.639 147.085 57.3928 147.112 57.1011 147.119C56.586 147.134 56.122 147.057 55.7091 146.886C55.2962 146.712 54.9686 146.443 54.7261 146.08C54.4875 145.716 54.3701 145.261 54.3739 144.716V136.182ZM63.0872 145.409L63.0134 146.034C62.9603 146.511 62.8656 146.996 62.7293 147.489C62.5967 147.985 62.4565 148.441 62.3088 148.858C62.1611 149.275 62.0418 149.602 61.9509 149.841H60.5645C60.6175 149.61 60.6895 149.295 60.7804 148.898C60.8751 148.5 60.966 148.053 61.0531 147.557C61.1402 147.061 61.199 146.557 61.2293 146.045L61.269 145.409H63.0872ZM72.1858 147H69.9358L74.0324 135.364H76.6347L80.7369 147H78.4869L75.379 137.75H75.2881L72.1858 147ZM72.2597 142.438H78.396V144.131H72.2597V142.438ZM87.2898 138.273V139.864H82.1307V138.273H87.2898ZM83.4205 147V137.449C83.4205 136.862 83.5417 136.373 83.7841 135.983C84.0303 135.593 84.3598 135.301 84.7727 135.108C85.1856 134.915 85.6439 134.818 86.1477 134.818C86.5038 134.818 86.8201 134.847 87.0966 134.903C87.3731 134.96 87.5777 135.011 87.7102 135.057L87.3011 136.648C87.214 136.621 87.1042 136.595 86.9716 136.568C86.839 136.538 86.6913 136.523 86.5284 136.523C86.1458 136.523 85.875 136.616 85.7159 136.801C85.5606 136.983 85.483 137.244 85.483 137.585V147H83.4205ZM94.121 138.273V139.864H88.9619V138.273H94.121ZM90.2517 147V137.449C90.2517 136.862 90.3729 136.373 90.6153 135.983C90.8616 135.593 91.1911 135.301 91.604 135.108C92.0169 134.915 92.4752 134.818 92.979 134.818C93.335 134.818 93.6513 134.847 93.9278 134.903C94.2044 134.96 94.4089 135.011 94.5415 135.057L94.1324 136.648C94.0453 136.621 93.9354 136.595 93.8028 136.568C93.6703 136.538 93.5225 136.523 93.3597 136.523C92.9771 136.523 92.7063 136.616 92.5472 136.801C92.3919 136.983 92.3142 137.244 92.3142 137.585V147H90.2517ZM100.011 147.17C99.1582 147.17 98.4196 146.983 97.7946 146.608C97.1696 146.233 96.6848 145.708 96.3401 145.034C95.9991 144.36 95.8287 143.572 95.8287 142.67C95.8287 141.769 95.9991 140.979 96.3401 140.301C96.6848 139.623 97.1696 139.097 97.7946 138.722C98.4196 138.347 99.1582 138.159 100.011 138.159C100.863 138.159 101.601 138.347 102.226 138.722C102.851 139.097 103.334 139.623 103.675 140.301C104.02 140.979 104.192 141.769 104.192 142.67C104.192 143.572 104.02 144.36 103.675 145.034C103.334 145.708 102.851 146.233 102.226 146.608C101.601 146.983 100.863 147.17 100.011 147.17ZM100.022 145.523C100.484 145.523 100.87 145.396 101.181 145.142C101.492 144.884 101.723 144.54 101.874 144.108C102.029 143.676 102.107 143.195 102.107 142.665C102.107 142.131 102.029 141.648 101.874 141.216C101.723 140.78 101.492 140.434 101.181 140.176C100.87 139.919 100.484 139.79 100.022 139.79C99.5484 139.79 99.1544 139.919 98.8401 140.176C98.5294 140.434 98.2965 140.78 98.1412 141.216C97.9897 141.648 97.9139 142.131 97.9139 142.665C97.9139 143.195 97.9897 143.676 98.1412 144.108C98.2965 144.54 98.5294 144.884 98.8401 145.142C99.1544 145.396 99.5484 145.523 100.022 145.523ZM106.738 147V138.273H108.732V139.727H108.823C108.982 139.223 109.255 138.835 109.641 138.562C110.032 138.286 110.477 138.148 110.977 138.148C111.09 138.148 111.217 138.153 111.357 138.165C111.501 138.172 111.621 138.186 111.715 138.205V140.097C111.628 140.066 111.49 140.04 111.301 140.017C111.115 139.991 110.935 139.977 110.761 139.977C110.386 139.977 110.049 140.059 109.749 140.222C109.454 140.381 109.221 140.602 109.051 140.886C108.88 141.17 108.795 141.498 108.795 141.869V147H106.738ZM116.761 147.153C116.075 147.153 115.462 146.977 114.92 146.625C114.379 146.273 113.95 145.761 113.636 145.091C113.322 144.42 113.164 143.606 113.164 142.648C113.164 141.678 113.324 140.86 113.642 140.193C113.964 139.523 114.397 139.017 114.943 138.676C115.488 138.331 116.096 138.159 116.767 138.159C117.278 138.159 117.699 138.246 118.028 138.42C118.358 138.591 118.619 138.797 118.812 139.04C119.005 139.278 119.155 139.504 119.261 139.716H119.346V135.364H121.409V147H119.386V145.625H119.261C119.155 145.837 119.002 146.062 118.801 146.301C118.6 146.536 118.335 146.737 118.005 146.903C117.676 147.07 117.261 147.153 116.761 147.153ZM117.335 145.466C117.771 145.466 118.142 145.348 118.449 145.114C118.755 144.875 118.988 144.544 119.147 144.119C119.307 143.695 119.386 143.201 119.386 142.636C119.386 142.072 119.307 141.581 119.147 141.165C118.992 140.748 118.761 140.424 118.454 140.193C118.151 139.962 117.778 139.847 117.335 139.847C116.877 139.847 116.494 139.966 116.187 140.205C115.88 140.443 115.649 140.773 115.494 141.193C115.339 141.614 115.261 142.095 115.261 142.636C115.261 143.182 115.339 143.669 115.494 144.097C115.653 144.521 115.886 144.856 116.193 145.102C116.504 145.345 116.884 145.466 117.335 145.466ZM126.912 147.176C126.359 147.176 125.861 147.078 125.418 146.881C124.978 146.68 124.63 146.384 124.372 145.994C124.118 145.604 123.991 145.123 123.991 144.551C123.991 144.059 124.082 143.652 124.264 143.33C124.446 143.008 124.694 142.75 125.009 142.557C125.323 142.364 125.677 142.218 126.071 142.119C126.469 142.017 126.88 141.943 127.304 141.898C127.815 141.845 128.23 141.797 128.548 141.756C128.866 141.71 129.098 141.642 129.241 141.551C129.389 141.456 129.463 141.311 129.463 141.114V141.08C129.463 140.652 129.336 140.32 129.082 140.085C128.829 139.85 128.463 139.733 127.986 139.733C127.482 139.733 127.082 139.843 126.787 140.062C126.495 140.282 126.298 140.542 126.196 140.841L124.276 140.568C124.427 140.038 124.677 139.595 125.026 139.239C125.374 138.879 125.8 138.61 126.304 138.432C126.808 138.25 127.365 138.159 127.974 138.159C128.395 138.159 128.813 138.208 129.23 138.307C129.647 138.405 130.027 138.568 130.372 138.795C130.717 139.019 130.993 139.324 131.202 139.71C131.414 140.097 131.52 140.58 131.52 141.159V147H129.543V145.801H129.474C129.349 146.044 129.173 146.271 128.946 146.483C128.723 146.691 128.44 146.86 128.099 146.989C127.762 147.114 127.366 147.176 126.912 147.176ZM127.446 145.665C127.859 145.665 128.217 145.583 128.52 145.42C128.823 145.254 129.056 145.034 129.219 144.761C129.385 144.489 129.469 144.191 129.469 143.869V142.841C129.404 142.894 129.295 142.943 129.139 142.989C128.988 143.034 128.817 143.074 128.628 143.108C128.438 143.142 128.251 143.172 128.065 143.199C127.88 143.225 127.719 143.248 127.582 143.267C127.276 143.309 127.001 143.377 126.759 143.472C126.516 143.566 126.325 143.699 126.185 143.869C126.045 144.036 125.974 144.252 125.974 144.517C125.974 144.896 126.113 145.182 126.389 145.375C126.666 145.568 127.018 145.665 127.446 145.665ZM134.479 147V135.364H136.536V139.716H136.621C136.727 139.504 136.877 139.278 137.07 139.04C137.263 138.797 137.524 138.591 137.854 138.42C138.184 138.246 138.604 138.159 139.115 138.159C139.79 138.159 140.398 138.331 140.939 138.676C141.485 139.017 141.916 139.523 142.235 140.193C142.557 140.86 142.718 141.678 142.718 142.648C142.718 143.606 142.56 144.42 142.246 145.091C141.932 145.761 141.504 146.273 140.962 146.625C140.42 146.977 139.807 147.153 139.121 147.153C138.621 147.153 138.206 147.07 137.877 146.903C137.547 146.737 137.282 146.536 137.081 146.301C136.884 146.062 136.731 145.837 136.621 145.625H136.502V147H134.479ZM136.496 142.636C136.496 143.201 136.576 143.695 136.735 144.119C136.898 144.544 137.13 144.875 137.434 145.114C137.74 145.348 138.112 145.466 138.547 145.466C139.002 145.466 139.382 145.345 139.689 145.102C139.996 144.856 140.227 144.521 140.382 144.097C140.541 143.669 140.621 143.182 140.621 142.636C140.621 142.095 140.543 141.614 140.388 141.193C140.233 140.773 140.002 140.443 139.695 140.205C139.388 139.966 139.005 139.847 138.547 139.847C138.108 139.847 137.735 139.962 137.428 140.193C137.121 140.424 136.888 140.748 136.729 141.165C136.574 141.581 136.496 142.072 136.496 142.636ZM147.323 135.364V147H145.266V135.364H147.323ZM154.102 147.17C153.227 147.17 152.471 146.989 151.835 146.625C151.202 146.258 150.715 145.739 150.374 145.068C150.034 144.394 149.863 143.6 149.863 142.688C149.863 141.79 150.034 141.002 150.374 140.324C150.719 139.642 151.2 139.112 151.818 138.733C152.435 138.35 153.16 138.159 153.994 138.159C154.532 138.159 155.039 138.246 155.516 138.42C155.998 138.591 156.422 138.856 156.789 139.216C157.16 139.576 157.452 140.034 157.664 140.591C157.876 141.144 157.982 141.803 157.982 142.568V143.199H150.829V141.812H156.011C156.007 141.419 155.922 141.068 155.755 140.761C155.588 140.451 155.355 140.206 155.056 140.028C154.761 139.85 154.416 139.761 154.022 139.761C153.602 139.761 153.232 139.864 152.914 140.068C152.596 140.269 152.348 140.534 152.17 140.864C151.996 141.189 151.907 141.547 151.903 141.938V143.148C151.903 143.655 151.996 144.091 152.181 144.455C152.367 144.814 152.626 145.091 152.96 145.284C153.293 145.473 153.683 145.568 154.13 145.568C154.429 145.568 154.7 145.527 154.943 145.443C155.185 145.356 155.395 145.229 155.573 145.062C155.751 144.896 155.886 144.689 155.977 144.443L157.897 144.659C157.776 145.167 157.545 145.61 157.204 145.989C156.867 146.364 156.435 146.655 155.909 146.864C155.382 147.068 154.78 147.17 154.102 147.17ZM162.937 145.409L162.863 146.034C162.81 146.511 162.716 146.996 162.579 147.489C162.447 147.985 162.307 148.441 162.159 148.858C162.011 149.275 161.892 149.602 161.801 149.841H160.414C160.468 149.61 160.539 149.295 160.63 148.898C160.725 148.5 160.816 148.053 160.903 147.557C160.99 147.061 161.049 146.557 161.079 146.045L161.119 145.409H162.937ZM180.502 139.29H178.377C178.316 138.941 178.204 138.633 178.041 138.364C177.879 138.091 177.676 137.86 177.434 137.67C177.191 137.481 176.915 137.339 176.604 137.244C176.297 137.146 175.966 137.097 175.61 137.097C174.977 137.097 174.416 137.256 173.928 137.574C173.439 137.888 173.057 138.35 172.78 138.96C172.504 139.566 172.365 140.307 172.365 141.182C172.365 142.072 172.504 142.822 172.78 143.432C173.06 144.038 173.443 144.496 173.928 144.807C174.416 145.114 174.975 145.267 175.604 145.267C175.952 145.267 176.278 145.222 176.581 145.131C176.888 145.036 177.163 144.898 177.405 144.716C177.651 144.534 177.858 144.311 178.024 144.045C178.195 143.78 178.312 143.477 178.377 143.136L180.502 143.148C180.422 143.701 180.25 144.22 179.985 144.705C179.723 145.189 179.38 145.617 178.956 145.989C178.532 146.356 178.036 146.644 177.468 146.852C176.899 147.057 176.269 147.159 175.576 147.159C174.553 147.159 173.64 146.922 172.837 146.449C172.034 145.975 171.401 145.292 170.939 144.398C170.477 143.504 170.246 142.432 170.246 141.182C170.246 139.928 170.479 138.856 170.945 137.966C171.411 137.072 172.045 136.388 172.848 135.915C173.651 135.441 174.56 135.205 175.576 135.205C176.223 135.205 176.826 135.295 177.382 135.477C177.939 135.659 178.435 135.926 178.871 136.278C179.307 136.627 179.665 137.055 179.945 137.562C180.229 138.066 180.415 138.642 180.502 139.29ZM188.704 143.33V138.273H190.761V147H188.766V145.449H188.675C188.478 145.937 188.154 146.337 187.704 146.648C187.257 146.958 186.706 147.114 186.05 147.114C185.478 147.114 184.973 146.987 184.533 146.733C184.098 146.475 183.757 146.102 183.511 145.614C183.264 145.121 183.141 144.527 183.141 143.83V138.273H185.198V143.511C185.198 144.064 185.35 144.504 185.653 144.83C185.956 145.155 186.353 145.318 186.846 145.318C187.149 145.318 187.442 145.244 187.726 145.097C188.011 144.949 188.243 144.729 188.425 144.438C188.611 144.142 188.704 143.773 188.704 143.33ZM198.034 138.273V139.864H193.016V138.273H198.034ZM194.255 136.182H196.312V144.375C196.312 144.652 196.354 144.864 196.437 145.011C196.524 145.155 196.638 145.254 196.778 145.307C196.918 145.36 197.073 145.386 197.244 145.386C197.373 145.386 197.49 145.377 197.596 145.358C197.706 145.339 197.789 145.322 197.846 145.307L198.193 146.915C198.083 146.953 197.926 146.994 197.721 147.04C197.52 147.085 197.274 147.112 196.982 147.119C196.467 147.134 196.003 147.057 195.59 146.886C195.177 146.712 194.85 146.443 194.607 146.08C194.369 145.716 194.251 145.261 194.255 144.716V136.182ZM204.912 138.273V139.864H199.895V138.273H204.912ZM201.133 136.182H203.19V144.375C203.19 144.652 203.232 144.864 203.315 145.011C203.402 145.155 203.516 145.254 203.656 145.307C203.796 145.36 203.951 145.386 204.122 145.386C204.251 145.386 204.368 145.377 204.474 145.358C204.584 145.339 204.667 145.322 204.724 145.307L205.071 146.915C204.961 146.953 204.804 146.994 204.599 147.04C204.398 147.085 204.152 147.112 203.861 147.119C203.345 147.134 202.881 147.057 202.468 146.886C202.056 146.712 201.728 146.443 201.486 146.08C201.247 145.716 201.129 145.261 201.133 144.716V136.182ZM207.432 147V138.273H209.489V147H207.432ZM208.466 137.034C208.14 137.034 207.86 136.926 207.625 136.71C207.39 136.491 207.273 136.227 207.273 135.92C207.273 135.61 207.39 135.347 207.625 135.131C207.86 134.911 208.14 134.801 208.466 134.801C208.795 134.801 209.076 134.911 209.307 135.131C209.542 135.347 209.659 135.61 209.659 135.92C209.659 136.227 209.542 136.491 209.307 136.71C209.076 136.926 208.795 137.034 208.466 137.034ZM214.461 141.886V147H212.404V138.273H214.37V139.756H214.472C214.673 139.267 214.993 138.879 215.432 138.591C215.875 138.303 216.423 138.159 217.074 138.159C217.676 138.159 218.201 138.288 218.648 138.545C219.099 138.803 219.447 139.176 219.693 139.665C219.943 140.153 220.067 140.746 220.063 141.443V147H218.006V141.761C218.006 141.178 217.854 140.722 217.551 140.392C217.252 140.062 216.837 139.898 216.307 139.898C215.947 139.898 215.627 139.977 215.347 140.136C215.07 140.292 214.853 140.517 214.693 140.812C214.538 141.108 214.461 141.466 214.461 141.886ZM226.749 150.455C226.011 150.455 225.376 150.354 224.846 150.153C224.315 149.956 223.889 149.691 223.567 149.358C223.245 149.025 223.022 148.655 222.897 148.25L224.749 147.801C224.832 147.972 224.954 148.14 225.113 148.307C225.272 148.477 225.486 148.617 225.755 148.727C226.028 148.841 226.37 148.898 226.783 148.898C227.367 148.898 227.85 148.756 228.232 148.472C228.615 148.191 228.806 147.729 228.806 147.085V145.432H228.704C228.598 145.644 228.442 145.862 228.238 146.085C228.037 146.309 227.77 146.496 227.437 146.648C227.107 146.799 226.692 146.875 226.192 146.875C225.522 146.875 224.914 146.718 224.368 146.403C223.827 146.085 223.395 145.612 223.073 144.983C222.755 144.35 222.596 143.559 222.596 142.608C222.596 141.65 222.755 140.841 223.073 140.182C223.395 139.519 223.829 139.017 224.374 138.676C224.92 138.331 225.528 138.159 226.198 138.159C226.709 138.159 227.13 138.246 227.459 138.42C227.793 138.591 228.058 138.797 228.255 139.04C228.452 139.278 228.601 139.504 228.704 139.716H228.817V138.273H230.846V147.142C230.846 147.888 230.668 148.506 230.312 148.994C229.956 149.483 229.469 149.848 228.851 150.091C228.234 150.333 227.533 150.455 226.749 150.455ZM226.766 145.261C227.202 145.261 227.573 145.155 227.88 144.943C228.187 144.731 228.42 144.426 228.579 144.028C228.738 143.631 228.817 143.153 228.817 142.597C228.817 142.047 228.738 141.566 228.579 141.153C228.423 140.741 228.192 140.42 227.886 140.193C227.582 139.962 227.209 139.847 226.766 139.847C226.308 139.847 225.925 139.966 225.618 140.205C225.312 140.443 225.081 140.771 224.925 141.188C224.77 141.6 224.692 142.07 224.692 142.597C224.692 143.131 224.77 143.598 224.925 144C225.084 144.398 225.317 144.708 225.624 144.932C225.935 145.152 226.315 145.261 226.766 145.261ZM239.043 141.307V143H233.805V141.307H239.043ZM242.098 147V135.364H249.666V137.131H244.206V140.29H249.274V142.057H244.206V145.233H249.711V147H242.098ZM255.764 147.153C255.079 147.153 254.465 146.977 253.923 146.625C253.382 146.273 252.954 145.761 252.639 145.091C252.325 144.42 252.168 143.606 252.168 142.648C252.168 141.678 252.327 140.86 252.645 140.193C252.967 139.523 253.401 139.017 253.946 138.676C254.491 138.331 255.099 138.159 255.77 138.159C256.281 138.159 256.702 138.246 257.031 138.42C257.361 138.591 257.622 138.797 257.815 139.04C258.009 139.278 258.158 139.504 258.264 139.716H258.349V135.364H260.412V147H258.389V145.625H258.264C258.158 145.837 258.005 146.062 257.804 146.301C257.603 146.536 257.338 146.737 257.009 146.903C256.679 147.07 256.264 147.153 255.764 147.153ZM256.338 145.466C256.774 145.466 257.145 145.348 257.452 145.114C257.759 144.875 257.991 144.544 258.151 144.119C258.31 143.695 258.389 143.201 258.389 142.636C258.389 142.072 258.31 141.581 258.151 141.165C257.995 140.748 257.764 140.424 257.457 140.193C257.154 139.962 256.781 139.847 256.338 139.847C255.88 139.847 255.497 139.966 255.19 140.205C254.884 140.443 254.652 140.773 254.497 141.193C254.342 141.614 254.264 142.095 254.264 142.636C254.264 143.182 254.342 143.669 254.497 144.097C254.656 144.521 254.889 144.856 255.196 145.102C255.507 145.345 255.887 145.466 256.338 145.466ZM267.199 150.455C266.46 150.455 265.826 150.354 265.296 150.153C264.765 149.956 264.339 149.691 264.017 149.358C263.695 149.025 263.472 148.655 263.347 148.25L265.199 147.801C265.282 147.972 265.404 148.14 265.563 148.307C265.722 148.477 265.936 148.617 266.205 148.727C266.478 148.841 266.82 148.898 267.233 148.898C267.817 148.898 268.3 148.756 268.682 148.472C269.065 148.191 269.256 147.729 269.256 147.085V145.432H269.154C269.048 145.644 268.892 145.862 268.688 146.085C268.487 146.309 268.22 146.496 267.887 146.648C267.557 146.799 267.142 146.875 266.642 146.875C265.972 146.875 265.364 146.718 264.818 146.403C264.277 146.085 263.845 145.612 263.523 144.983C263.205 144.35 263.046 143.559 263.046 142.608C263.046 141.65 263.205 140.841 263.523 140.182C263.845 139.519 264.279 139.017 264.824 138.676C265.37 138.331 265.978 138.159 266.648 138.159C267.159 138.159 267.58 138.246 267.909 138.42C268.243 138.591 268.508 138.797 268.705 139.04C268.902 139.278 269.051 139.504 269.154 139.716H269.267V138.273H271.296V147.142C271.296 147.888 271.118 148.506 270.762 148.994C270.406 149.483 269.919 149.848 269.301 150.091C268.684 150.333 267.983 150.455 267.199 150.455ZM267.216 145.261C267.652 145.261 268.023 145.155 268.33 144.943C268.637 144.731 268.87 144.426 269.029 144.028C269.188 143.631 269.267 143.153 269.267 142.597C269.267 142.047 269.188 141.566 269.029 141.153C268.873 140.741 268.642 140.42 268.335 140.193C268.032 139.962 267.659 139.847 267.216 139.847C266.758 139.847 266.375 139.966 266.068 140.205C265.762 140.443 265.531 140.771 265.375 141.188C265.22 141.6 265.142 142.07 265.142 142.597C265.142 143.131 265.22 143.598 265.375 144C265.534 144.398 265.767 144.708 266.074 144.932C266.385 145.152 266.765 145.261 267.216 145.261ZM278.067 147.17C277.192 147.17 276.437 146.989 275.8 146.625C275.168 146.258 274.681 145.739 274.34 145.068C273.999 144.394 273.829 143.6 273.829 142.688C273.829 141.79 273.999 141.002 274.34 140.324C274.685 139.642 275.166 139.112 275.783 138.733C276.401 138.35 277.126 138.159 277.959 138.159C278.497 138.159 279.005 138.246 279.482 138.42C279.963 138.591 280.387 138.856 280.755 139.216C281.126 139.576 281.418 140.034 281.63 140.591C281.842 141.144 281.948 141.803 281.948 142.568V143.199H274.795V141.812H279.976C279.973 141.419 279.887 141.068 279.721 140.761C279.554 140.451 279.321 140.206 279.022 140.028C278.726 139.85 278.382 139.761 277.988 139.761C277.567 139.761 277.198 139.864 276.88 140.068C276.562 140.269 276.314 140.534 276.136 140.864C275.961 141.189 275.872 141.547 275.868 141.938V143.148C275.868 143.655 275.961 144.091 276.147 144.455C276.332 144.814 276.592 145.091 276.925 145.284C277.259 145.473 277.649 145.568 278.096 145.568C278.395 145.568 278.666 145.527 278.908 145.443C279.151 145.356 279.361 145.229 279.539 145.062C279.717 144.896 279.851 144.689 279.942 144.443L281.863 144.659C281.742 145.167 281.511 145.61 281.17 145.989C280.832 146.364 280.401 146.655 279.874 146.864C279.348 147.068 278.745 147.17 278.067 147.17ZM291.797 147L288.513 135.364H290.78L292.876 143.915H292.984L295.223 135.364H297.285L299.53 143.92H299.632L301.728 135.364H303.995L300.711 147H298.632L296.302 138.835H296.211L293.876 147H291.797ZM309.139 147.17C308.264 147.17 307.509 146.989 306.872 146.625C306.24 146.258 305.753 145.739 305.412 145.068C305.071 144.394 304.901 143.6 304.901 142.688C304.901 141.79 305.071 141.002 305.412 140.324C305.757 139.642 306.238 139.112 306.855 138.733C307.473 138.35 308.198 138.159 309.031 138.159C309.569 138.159 310.077 138.246 310.554 138.42C311.035 138.591 311.459 138.856 311.827 139.216C312.198 139.576 312.49 140.034 312.702 140.591C312.914 141.144 313.02 141.803 313.02 142.568V143.199H305.866V141.812H311.048C311.045 141.419 310.959 141.068 310.793 140.761C310.626 140.451 310.393 140.206 310.094 140.028C309.798 139.85 309.454 139.761 309.06 139.761C308.639 139.761 308.27 139.864 307.952 140.068C307.634 140.269 307.385 140.534 307.207 140.864C307.033 141.189 306.944 141.547 306.94 141.938V143.148C306.94 143.655 307.033 144.091 307.219 144.455C307.404 144.814 307.664 145.091 307.997 145.284C308.33 145.473 308.721 145.568 309.168 145.568C309.467 145.568 309.738 145.527 309.98 145.443C310.223 145.356 310.433 145.229 310.611 145.062C310.789 144.896 310.923 144.689 311.014 144.443L312.935 144.659C312.813 145.167 312.582 145.61 312.241 145.989C311.904 146.364 311.473 146.655 310.946 146.864C310.42 147.068 309.817 147.17 309.139 147.17ZM315.651 147V135.364H317.708V139.716H317.793C317.899 139.504 318.049 139.278 318.242 139.04C318.435 138.797 318.696 138.591 319.026 138.42C319.355 138.246 319.776 138.159 320.287 138.159C320.961 138.159 321.569 138.331 322.111 138.676C322.657 139.017 323.088 139.523 323.407 140.193C323.728 140.86 323.889 141.678 323.889 142.648C323.889 143.606 323.732 144.42 323.418 145.091C323.103 145.761 322.675 146.273 322.134 146.625C321.592 146.977 320.978 147.153 320.293 147.153C319.793 147.153 319.378 147.07 319.049 146.903C318.719 146.737 318.454 146.536 318.253 146.301C318.056 146.062 317.903 145.837 317.793 145.625H317.674V147H315.651ZM317.668 142.636C317.668 143.201 317.747 143.695 317.907 144.119C318.069 144.544 318.302 144.875 318.605 145.114C318.912 145.348 319.283 145.466 319.719 145.466C320.174 145.466 320.554 145.345 320.861 145.102C321.168 144.856 321.399 144.521 321.554 144.097C321.713 143.669 321.793 143.182 321.793 142.636C321.793 142.095 321.715 141.614 321.56 141.193C321.405 140.773 321.174 140.443 320.867 140.205C320.56 139.966 320.177 139.847 319.719 139.847C319.28 139.847 318.907 139.962 318.6 140.193C318.293 140.424 318.06 140.748 317.901 141.165C317.746 141.581 317.668 142.072 317.668 142.636ZM337.622 138.562C337.569 138.066 337.345 137.68 336.951 137.403C336.561 137.127 336.053 136.989 335.428 136.989C334.989 136.989 334.612 137.055 334.298 137.188C333.983 137.32 333.743 137.5 333.576 137.727C333.409 137.955 333.324 138.214 333.32 138.506C333.32 138.748 333.375 138.958 333.485 139.136C333.599 139.314 333.752 139.466 333.945 139.591C334.139 139.712 334.353 139.814 334.587 139.898C334.822 139.981 335.059 140.051 335.298 140.108L336.389 140.381C336.828 140.483 337.25 140.621 337.656 140.795C338.065 140.97 338.43 141.189 338.752 141.455C339.078 141.72 339.336 142.04 339.525 142.415C339.714 142.79 339.809 143.229 339.809 143.733C339.809 144.415 339.635 145.015 339.286 145.534C338.938 146.049 338.434 146.453 337.775 146.744C337.12 147.032 336.326 147.176 335.394 147.176C334.489 147.176 333.703 147.036 333.036 146.756C332.373 146.475 331.855 146.066 331.48 145.528C331.108 144.991 330.908 144.335 330.877 143.562H332.951C332.981 143.968 333.106 144.305 333.326 144.574C333.546 144.843 333.832 145.044 334.184 145.176C334.54 145.309 334.938 145.375 335.377 145.375C335.836 145.375 336.237 145.307 336.582 145.17C336.93 145.03 337.203 144.837 337.4 144.591C337.597 144.341 337.697 144.049 337.701 143.716C337.697 143.413 337.608 143.163 337.434 142.966C337.26 142.765 337.016 142.598 336.701 142.466C336.391 142.33 336.027 142.208 335.61 142.102L334.286 141.761C333.328 141.515 332.57 141.142 332.014 140.642C331.461 140.138 331.184 139.47 331.184 138.636C331.184 137.951 331.37 137.35 331.741 136.835C332.116 136.32 332.625 135.92 333.269 135.636C333.913 135.348 334.642 135.205 335.457 135.205C336.283 135.205 337.006 135.348 337.627 135.636C338.252 135.92 338.743 136.316 339.099 136.824C339.455 137.328 339.639 137.907 339.65 138.562H337.622ZM346.261 147.17C345.386 147.17 344.63 146.989 343.994 146.625C343.361 146.258 342.875 145.739 342.534 145.068C342.193 144.394 342.022 143.6 342.022 142.688C342.022 141.79 342.193 141.002 342.534 140.324C342.879 139.642 343.36 139.112 343.977 138.733C344.594 138.35 345.32 138.159 346.153 138.159C346.691 138.159 347.199 138.246 347.676 138.42C348.157 138.591 348.581 138.856 348.949 139.216C349.32 139.576 349.611 140.034 349.824 140.591C350.036 141.144 350.142 141.803 350.142 142.568V143.199H342.988V141.812H348.17C348.166 141.419 348.081 141.068 347.915 140.761C347.748 140.451 347.515 140.206 347.216 140.028C346.92 139.85 346.575 139.761 346.182 139.761C345.761 139.761 345.392 139.864 345.074 140.068C344.755 140.269 344.507 140.534 344.329 140.864C344.155 141.189 344.066 141.547 344.062 141.938V143.148C344.062 143.655 344.155 144.091 344.341 144.455C344.526 144.814 344.786 145.091 345.119 145.284C345.452 145.473 345.843 145.568 346.29 145.568C346.589 145.568 346.86 145.527 347.102 145.443C347.344 145.356 347.555 145.229 347.733 145.062C347.911 144.896 348.045 144.689 348.136 144.443L350.057 144.659C349.935 145.167 349.704 145.61 349.363 145.989C349.026 146.364 348.594 146.655 348.068 146.864C347.541 147.068 346.939 147.17 346.261 147.17ZM352.682 147V138.273H354.676V139.727H354.767C354.926 139.223 355.199 138.835 355.585 138.562C355.975 138.286 356.42 138.148 356.92 138.148C357.034 138.148 357.161 138.153 357.301 138.165C357.445 138.172 357.564 138.186 357.659 138.205V140.097C357.572 140.066 357.434 140.04 357.244 140.017C357.059 139.991 356.879 139.977 356.705 139.977C356.33 139.977 355.992 140.059 355.693 140.222C355.398 140.381 355.165 140.602 354.994 140.886C354.824 141.17 354.739 141.498 354.739 141.869V147H352.682ZM367.887 138.273L364.779 147H362.506L359.398 138.273H361.591L363.597 144.756H363.688L365.699 138.273H367.887ZM370.11 147V138.273H372.167V147H370.11ZM371.144 137.034C370.818 137.034 370.538 136.926 370.303 136.71C370.068 136.491 369.951 136.227 369.951 135.92C369.951 135.61 370.068 135.347 370.303 135.131C370.538 134.911 370.818 134.801 371.144 134.801C371.474 134.801 371.754 134.911 371.985 135.131C372.22 135.347 372.337 135.61 372.337 135.92C372.337 136.227 372.22 136.491 371.985 136.71C371.754 136.926 371.474 137.034 371.144 137.034ZM378.889 147.17C378.017 147.17 377.269 146.979 376.644 146.597C376.023 146.214 375.544 145.686 375.207 145.011C374.873 144.333 374.707 143.553 374.707 142.67C374.707 141.784 374.877 141.002 375.218 140.324C375.559 139.642 376.04 139.112 376.661 138.733C377.286 138.35 378.025 138.159 378.877 138.159C379.586 138.159 380.212 138.29 380.758 138.551C381.307 138.809 381.745 139.174 382.07 139.648C382.396 140.117 382.582 140.667 382.627 141.295H380.661C380.582 140.875 380.392 140.525 380.093 140.244C379.798 139.96 379.402 139.818 378.906 139.818C378.485 139.818 378.116 139.932 377.798 140.159C377.48 140.383 377.231 140.705 377.053 141.125C376.879 141.545 376.792 142.049 376.792 142.636C376.792 143.231 376.879 143.742 377.053 144.17C377.228 144.595 377.472 144.922 377.786 145.153C378.105 145.381 378.478 145.494 378.906 145.494C379.209 145.494 379.48 145.437 379.718 145.324C379.961 145.206 380.163 145.038 380.326 144.818C380.489 144.598 380.601 144.331 380.661 144.017H382.627C382.578 144.634 382.396 145.182 382.082 145.659C381.767 146.133 381.339 146.504 380.798 146.773C380.256 147.038 379.62 147.17 378.889 147.17ZM388.98 147.17C388.105 147.17 387.349 146.989 386.713 146.625C386.08 146.258 385.593 145.739 385.253 145.068C384.912 144.394 384.741 143.6 384.741 142.688C384.741 141.79 384.912 141.002 385.253 140.324C385.597 139.642 386.078 139.112 386.696 138.733C387.313 138.35 388.039 138.159 388.872 138.159C389.41 138.159 389.917 138.246 390.395 138.42C390.876 138.591 391.3 138.856 391.667 139.216C392.039 139.576 392.33 140.034 392.542 140.591C392.754 141.144 392.861 141.803 392.861 142.568V143.199H385.707V141.812H390.889C390.885 141.419 390.8 141.068 390.633 140.761C390.467 140.451 390.234 140.206 389.934 140.028C389.639 139.85 389.294 139.761 388.9 139.761C388.48 139.761 388.111 139.864 387.792 140.068C387.474 140.269 387.226 140.534 387.048 140.864C386.874 141.189 386.785 141.547 386.781 141.938V143.148C386.781 143.655 386.874 144.091 387.059 144.455C387.245 144.814 387.504 145.091 387.838 145.284C388.171 145.473 388.561 145.568 389.008 145.568C389.307 145.568 389.578 145.527 389.821 145.443C390.063 145.356 390.273 145.229 390.451 145.062C390.629 144.896 390.764 144.689 390.855 144.443L392.775 144.659C392.654 145.167 392.423 145.61 392.082 145.989C391.745 146.364 391.313 146.655 390.787 146.864C390.26 147.068 389.658 147.17 388.98 147.17ZM402.298 140.58L400.423 140.784C400.37 140.595 400.277 140.417 400.145 140.25C400.016 140.083 399.842 139.949 399.622 139.847C399.402 139.744 399.134 139.693 398.815 139.693C398.387 139.693 398.027 139.786 397.736 139.972C397.448 140.157 397.306 140.398 397.31 140.693C397.306 140.947 397.399 141.153 397.588 141.312C397.781 141.472 398.099 141.602 398.543 141.705L400.031 142.023C400.857 142.201 401.471 142.483 401.872 142.869C402.277 143.256 402.482 143.761 402.486 144.386C402.482 144.936 402.321 145.42 402.003 145.841C401.688 146.258 401.251 146.583 400.69 146.818C400.13 147.053 399.486 147.17 398.759 147.17C397.69 147.17 396.83 146.947 396.179 146.5C395.527 146.049 395.139 145.422 395.014 144.619L397.02 144.426C397.111 144.82 397.304 145.117 397.599 145.318C397.895 145.519 398.279 145.619 398.753 145.619C399.241 145.619 399.634 145.519 399.929 145.318C400.228 145.117 400.378 144.869 400.378 144.574C400.378 144.324 400.281 144.117 400.088 143.955C399.899 143.792 399.603 143.667 399.202 143.58L397.713 143.267C396.876 143.093 396.257 142.799 395.855 142.386C395.454 141.97 395.255 141.443 395.259 140.807C395.255 140.269 395.401 139.803 395.696 139.409C395.995 139.011 396.41 138.705 396.94 138.489C397.474 138.269 398.09 138.159 398.787 138.159C399.81 138.159 400.615 138.377 401.202 138.812C401.793 139.248 402.158 139.837 402.298 140.58Z" fill="url(#paint0_linear_2_24)"/>
<defs>
<linearGradient id="paint0_linear_2_24" x1="0" y1="141.5" x2="407" y2="141.5" gradientUnits="userSpaceOnUse">
<stop stop-color="#4285F4"/>
<stop offset="1" stop-color="#34A853"/>
</linearGradient>
</defs>
</svg>
