<svg width="238" height="238" viewBox="0 0 238 238" fill="none" xmlns="http://www.w3.org/2000/svg">
<path d="M119 9V229M229 119H9M33.8205 51.3077C58.682 69.0443 88.4602 78.5777 119 78.5777C149.54 78.5777 179.318 69.0443 204.179 51.3077M204.179 186.692C179.318 168.956 149.54 159.422 119 159.422C88.4602 159.422 58.682 168.956 33.8205 186.692M110.538 11.8205C94.863 25.0588 82.265 41.5581 73.6234 60.167C64.9818 78.776 60.5049 99.0465 60.5049 119.564C60.5049 140.082 64.9818 160.352 73.6234 178.961C82.265 197.57 94.863 214.069 110.538 227.308M127.462 227.308C143.137 214.069 155.735 197.57 164.377 178.961C173.018 160.352 177.495 140.082 177.495 119.564C177.495 99.0465 173.018 78.776 164.377 60.167C155.735 41.5581 143.137 25.0588 127.462 11.8205M118.436 9C89.3113 9.14936 61.4348 20.843 40.9197 41.5165C20.4046 62.1901 8.92568 90.1557 9.00036 119.281C9.07504 148.405 20.6972 176.312 41.318 196.88C61.9389 217.448 89.8751 228.999 119 228.999C148.125 228.999 176.061 217.448 196.682 196.88C217.303 176.312 228.925 148.405 229 119.281C229.074 90.1557 217.595 62.1901 197.08 41.5165C176.565 20.843 148.689 9.14936 119.564 9H118.436Z" stroke="url(#paint0_linear_2_19)" stroke-width="18"/>
<defs>
<linearGradient id="paint0_linear_2_19" x1="229" y1="119" x2="9" y2="119" gradientUnits="userSpaceOnUse">
<stop stop-color="#34A853"/>
<stop offset="1" stop-color="#4285F4"/>
</linearGradient>
</defs>
</svg>
